<?xml version="1.0" standalone="no"?>
<!DOCTYPE svg PUBLIC "-//W3C//DTD SVG 1.1//EN" "http://www.w3.org/Graphics/SVG/1.1/DTD/svg11.dtd" >
<svg xmlns="http://www.w3.org/2000/svg">
<metadata></metadata>
<defs>
<font id="MetaProThin" horiz-adv-x="0" >
<font-face units-per-em="2048" ascent="1638" descent="-410" />
<missing-glyph horiz-adv-x="462" />
<glyph horiz-adv-x="2048" />
<glyph horiz-adv-x="2048" />
<glyph unicode="&#xd;" horiz-adv-x="2048" />
<glyph unicode=" " horiz-adv-x="462" d="M0 0v2v-2z" />
<glyph unicode="!" horiz-adv-x="428" d="M158 44q0 -24 16 -40t40 -16v2l2 -2q20 0 36 16t16 40t-16 40q-14 14 -38 14t-40 -14q-16 -16 -16 -40zM178 1406l12 -1096h-2h52l10 1106z" />
<glyph unicode="&#x22;" horiz-adv-x="652" d="M176 984h56v436h-56v-436v2v-2zM416 984h60v436h-60v-436z" />
<glyph unicode="#" horiz-adv-x="1056" d="M58 476h208l-68 -476h2h56l68 476h340l-68 -476h56l68 476h216v52h-208l56 398h212v52h-204l64 472h-56l-66 -472h-342l68 472h-56l-68 -472h-216v-52h208l-54 -398h-216v-52zM332 528l56 398h340l-56 -398h-340v2v-2z" />
<glyph unicode="$" horiz-adv-x="960" d="M68 74q84 -52 178 -76q96 -24 206 -24v-186v4h52v188q104 10 188 60t134 130q52 82 52 186q0 72 -28 132q-26 60 -68 100q-44 44 -100 72t-116 46l-64 20v596q90 -2 164 -28t138 -72l32 48q-68 46 -148 74q-82 28 -184 30v162h-52v-162q-102 -8 -182 -52t-128 -120 t-48 -176q0 -64 20 -120t60 -100q38 -40 96 -70t120 -48l60 -20v-640q-98 0 -186 24t-168 74zM162 1044q0 80 38 140q40 60 104 96t144 42v-580v2h4q-124 36 -188 84t-84 104t-18 112zM502 34v624q160 -46 232 -126q74 -78 74 -184q0 -86 -40 -154t-108 -112 q-68 -42 -156 -52z" />
<glyph unicode="%" horiz-adv-x="1534" d="M72 1082q0 -94 34 -168t102 -118q66 -44 164 -44t164 44t98 116q34 72 34 164t-32 168q-32 74 -98 120q-68 44 -168 44q-102 0 -168 -46t-98 -120t-32 -160zM126 1082q0 72 24 136t78 104q52 40 140 40q92 0 144 -40q54 -42 78 -106t24 -136q0 -76 -26 -140t-80 -100 q-52 -36 -132 -36l-4 -8q-86 0 -140 38q-56 40 -82 104q-24 64 -24 144zM400 0h56l680 1396h-56zM864 316q0 -92 34 -168t102 -120q66 -44 164 -44t164 44t98 118q34 74 34 166q0 90 -32 166t-98 122q-66 44 -166 44q-102 0 -170 -48q-66 -46 -98 -120t-32 -160zM922 316 q0 72 24 136t76 104t140 40q92 0 144 -42q54 -42 78 -106t24 -136q0 -78 -26 -142t-80 -100q-52 -36 -132 -36v2l-6 -6q-86 0 -140 38t-78 102t-24 146z" />
<glyph unicode="&#x26;" horiz-adv-x="1196" d="M98 326q2 -172 110 -264t300 -92l6 2q98 0 180 32t142 80t96 100l192 -184h86l-244 236q28 48 48 104t32 132q12 78 12 190v18h-56v-32q0 -128 -20 -220q-22 -92 -56 -154l-428 412q100 48 180 100t128 118t48 156q0 92 -42 154q-44 64 -116 96q-74 32 -170 32 q-94 0 -170 -36t-120 -104q-44 -66 -44 -156q0 -84 52 -172t152 -178q-136 -64 -216 -154q-80 -88 -82 -216zM172 320q0 112 72 196q70 84 196 144l456 -440q-32 -48 -88 -94t-132 -76t-166 -30v2h4q-160 0 -250 76q-92 78 -92 222zM258 1052q0 76 36 132q36 54 96 82 q62 28 138 28q116 0 186 -60t72 -172q0 -76 -42 -136q-40 -60 -114 -108t-170 -92v-2q-112 100 -158 180t-44 148z" />
<glyph unicode="'" horiz-adv-x="410" d="M176 984h56v436h-56v-436v2v-2z" />
<glyph unicode="(" horiz-adv-x="594" d="M180 636q0 -164 18 -288t50 -218q32 -92 76 -164q60 -102 140 -174t166 -108v2l-2 -6l18 36q-68 32 -136 90q-66 60 -114 132q-72 104 -112 276q-40 174 -40 422q0 232 36 388t92 254q52 90 124 156q72 68 148 108l-16 36q-70 -32 -142 -88t-128 -132q-52 -70 -92 -164 t-62 -230q-24 -136 -24 -328z" />
<glyph unicode=")" horiz-adv-x="594" d="M-50 1542q68 -32 134 -90q64 -58 116 -130q72 -104 112 -276t40 -424q0 -232 -36 -388t-92 -252q-52 -92 -122 -160t-146 -106l16 -36v2l-4 -2q68 32 140 88q70 56 128 132q52 68 92 164q40 94 62 230t22 328q0 242 -36 402q-38 162 -102 268q-60 100 -140 174 q-80 72 -166 112z" />
<glyph unicode="*" horiz-adv-x="856" d="M94 1196l296 -88l-188 -260l40 -32v2v-2l186 264l188 -264l44 32l-188 260l296 88l-14 48l-296 -88v300h-52v-300l-296 88z" />
<glyph unicode="+" horiz-adv-x="990" d="M84 484h380v-382v2v-2h60v382h380v56h-380v380h-60v-380h-380v-56z" />
<glyph unicode="," horiz-adv-x="344" d="M80 -182l24 -36v2h-6q32 20 58 44t42 52t26 60t10 68q0 42 -20 68q-18 24 -50 24q-24 0 -40 -16t-16 -44q0 -24 16 -40t36 -16h6h10q-2 -54 -28 -96q-24 -42 -68 -70z" />
<glyph unicode="-" horiz-adv-x="612" d="M112 536h392v60h-392v-60v2v-2z" />
<glyph unicode="." horiz-adv-x="340" d="M116 42q0 -26 16 -42t40 -16v2l-2 -2q24 0 40 16q18 16 18 42q0 24 -16 40t-40 16t-40 -16t-16 -40z" />
<glyph unicode="/" horiz-adv-x="752" d="M82 -302v-2h52l532 1852h-54l-530 -1852v2z" />
<glyph unicode="0" horiz-adv-x="1092" d="M106 516q0 -168 54 -286q54 -120 154 -182t234 -62v-2q128 0 226 60q100 60 156 176t56 284t-54 288q-56 120 -156 184q-100 62 -236 62q-126 0 -224 -60q-98 -62 -154 -178t-56 -284zM174 526q0 152 46 256q48 104 132 156q84 54 194 54q180 0 278 -124q96 -124 96 -364 q0 -152 -46 -256q-48 -104 -132 -156t-194 -52v2v-4q-180 0 -278 124q-96 124 -96 364z" />
<glyph unicode="1" horiz-adv-x="694" d="M70 820l16 -36q12 6 52 30t88 54q48 32 88 56t52 32v-904h-204v-52v2l-4 -2h468v52h-200v980h-52z" />
<glyph unicode="2" horiz-adv-x="964" d="M98 880l28 -34q80 60 168 98q86 40 190 40q110 0 182 -60t74 -176q0 -100 -58 -192q-56 -92 -170 -188q-76 -64 -144 -116q-66 -52 -122 -96q-12 -10 -40 -30t-58 -40q-28 -20 -48 -34v-52v2v-2h750l14 52h-552h-90h-52q40 24 140 96t238 188q130 108 196 210t66 210 q0 94 -42 158q-42 62 -114 94q-70 32 -158 32q-118 0 -214 -44t-184 -116z" />
<glyph unicode="3" horiz-adv-x="926" d="M70 910l32 -36q72 52 158 86t186 34q76 0 138 -28q60 -28 96 -84t36 -140q-2 -116 -82 -192t-212 -84h-32h-52h-38v-48h74q84 0 148 -16q64 -14 114 -46q58 -36 90 -92q32 -58 32 -134q0 -100 -56 -184q-54 -84 -146 -140q-70 -42 -172 -72q-102 -28 -218 -28 q-34 0 -58 2t-36 4l14 -44q12 -2 32 -4t48 -2v2l8 -18q112 0 220 28t196 76q108 60 172 154q64 92 66 212q0 126 -84 210t-236 108q124 28 198 110t76 198q0 96 -44 164t-120 104q-74 36 -166 36q-116 -2 -214 -42q-100 -40 -168 -94z" />
<glyph unicode="4" horiz-adv-x="994" d="M74 0h644v-384v2l-2 -2l60 18v368h166v52h-166v586l-52 -16l-6 -352v-60v-68v-50v-44h-522h-38h-20l56 104l440 888h-68l-492 -990v-52z" />
<glyph unicode="5" horiz-adv-x="884" d="M84 -292l12 -52q24 -4 40 -8t44 -4v2v-2q112 0 220 34q108 32 196 96t140 154t52 204q-2 184 -110 278q-108 96 -292 96q-56 0 -112 -8q-56 -10 -90 -22l52 496h488l12 52h-556l-60 -616q44 20 108 34q64 16 140 16q164 0 258 -80q92 -80 94 -244q-2 -124 -76 -224 t-198 -158t-274 -58q-32 0 -52 4q-18 4 -36 10z" />
<glyph unicode="6" horiz-adv-x="1026" d="M104 508q0 -160 52 -280t148 -188t228 -68v8q120 0 208 50q88 48 138 140t50 216q0 116 -52 206t-140 140q-88 52 -198 52q-108 -2 -200 -50q-94 -48 -158 -124q6 104 48 212t120 208q76 100 192 188t284 152l-18 44q-164 -64 -284 -148t-216 -198q-100 -120 -150 -256 q-52 -136 -52 -304zM178 510q0 20 2 40q64 80 156 132t196 54q98 0 172 -44t116 -122q40 -80 40 -182q-2 -168 -90 -260t-240 -92v2l2 -8q-80 0 -144 32q-66 32 -112 94q-44 56 -68 134q-24 76 -28 170q-2 32 -2 50z" />
<glyph unicode="7" horiz-adv-x="884" d="M52 972h624h62h36q-88 -100 -184 -254t-198 -350q-38 -74 -78 -168q-40 -92 -78 -192t-66 -192q-28 -94 -44 -168v2l2 -10l76 20q20 94 60 218t88 248t96 216q92 184 188 342q96 160 192 276l12 64h-772z" />
<glyph unicode="8" horiz-adv-x="1034" d="M98 322q0 -108 52 -186t146 -120q92 -42 220 -42v6q124 0 218 44q96 42 150 122q52 78 52 186q-2 104 -52 174q-50 72 -130 120t-172 84q88 36 160 82q70 44 110 104t40 142q-2 140 -100 222q-100 82 -272 84q-110 0 -196 -36q-84 -34 -132 -104q-48 -68 -48 -172 q2 -86 50 -150t116 -108q70 -44 140 -72q-104 -40 -184 -92t-124 -122t-44 -166zM160 332q2 132 94 212q90 80 242 138q104 -42 180 -84q78 -40 126 -92q32 -36 50 -82q18 -48 18 -104q-2 -140 -98 -216t-256 -76v2l4 -2q-164 0 -262 80q-96 80 -98 224zM206 1036 q0 90 40 148t112 86q70 28 160 28q148 -2 230 -70q84 -68 84 -184q0 -108 -80 -180q-80 -74 -222 -130l-2 -6q-148 56 -234 132t-88 176z" />
<glyph unicode="9" horiz-adv-x="1026" d="M98 -366l36 -40h-6q182 52 326 138q142 86 238 198q108 124 168 272t60 320q0 156 -52 272t-146 180t-222 64q-118 0 -206 -50q-88 -52 -140 -144q-50 -92 -50 -216q0 -116 48 -208t136 -144t204 -52q102 0 192 40q92 40 152 112q-16 -124 -70 -232t-144 -204 q-84 -94 -214 -174t-310 -132zM170 632q2 168 90 264q88 94 240 96q136 -2 224 -94q88 -90 116 -242q8 -48 12 -100t0 -104q-66 -86 -156 -130q-92 -44 -196 -44v2l-4 -6q-100 0 -174 46q-72 48 -112 128t-40 184z" />
<glyph unicode=":" horiz-adv-x="352" d="M122 40q0 -24 16 -40t40 -16v2l-2 -2q24 0 40 16q18 16 18 40q0 26 -16 42t-40 16t-40 -16t-16 -42zM122 668q0 -26 16 -42t40 -16h-2q24 0 40 16q18 16 18 42q0 24 -16 40t-40 16t-40 -16t-16 -40z" />
<glyph unicode=";" horiz-adv-x="362" d="M94 -182l24 -36v2h-6q32 20 58 44t42 52t26 60t10 68q0 42 -18 66q-18 26 -50 26q-24 0 -40 -16t-16 -44q0 -24 16 -40t36 -16h4h10q-2 -54 -26 -96q-26 -42 -70 -70zM120 668q0 -28 16 -44t40 -16v2q24 0 40 16t16 42q0 24 -16 40t-40 16t-40 -16t-16 -40z" />
<glyph unicode="&#x3c;" horiz-adv-x="650" d="M72 590l388 -472v2v-4l48 36l-356 438l356 436l-48 36z" />
<glyph unicode="=" horiz-adv-x="1056" d="M82 376h892v52h-892v-52v2v-2zM82 674h892v52h-892v-52z" />
<glyph unicode="&#x3e;" horiz-adv-x="650" d="M142 150l48 -36v2l388 472l-388 472l-48 -36l356 -436z" />
<glyph unicode="?" horiz-adv-x="802" d="M66 1316l28 -44q64 42 132 68q68 24 152 24q118 -2 190 -72t74 -184q-2 -96 -42 -158q-42 -64 -98 -108t-100 -80q-60 -56 -88 -124t-28 -148q0 -40 6 -80t16 -80v2h56q-8 40 -12 76q-4 38 -4 70q0 80 24 140q24 62 76 106q28 24 70 56t84 76q44 44 72 106q28 64 28 148 q-2 140 -86 224t-228 86q-100 0 -178 -28q-80 -28 -144 -76zM298 44q0 -28 16 -44t40 -16v2l-2 -2q24 0 40 16q18 16 18 44q0 24 -16 40t-40 16t-40 -16t-16 -40z" />
<glyph unicode="@" horiz-adv-x="1706" d="M136 402q0 -186 60 -320t164 -218q102 -86 232 -126t272 -40l12 6q76 0 154 12q80 12 144 36l-16 44q-58 -22 -132 -34q-76 -14 -148 -14q-132 0 -252 40t-214 120q-94 82 -150 206t-56 296q0 150 50 282q50 134 140 238q92 104 216 164t272 60q172 0 312 -72t224 -208 q84 -134 86 -318q-2 -162 -48 -270t-118 -162q-72 -52 -152 -52q-76 -2 -108 50q-30 52 -2 180l82 360l16 72t10 48q-50 36 -110 56t-134 20q-106 0 -190 -48q-82 -48 -140 -128q-56 -80 -86 -176t-30 -194q2 -136 62 -204t156 -68q68 0 126 30t104 78t78 104 q-20 -114 20 -170q42 -58 136 -58q92 0 178 56q84 56 140 172t58 296q-2 202 -94 346t-246 220q-152 76 -340 76q-160 0 -294 -60t-234 -168t-154 -252q-56 -144 -56 -308zM564 306q0 84 24 172t72 164t120 122t166 46q58 0 102 -16q44 -14 80 -40l-88 -396 q-28 -74 -72 -134q-46 -60 -106 -96q-58 -36 -122 -36v2v-4q-84 0 -130 54t-46 162z" />
<glyph unicode="A" horiz-adv-x="1074" d="M28 0h64l156 480h568l156 -480h72l-464 1404h-84zM266 532v2l2 -2l268 812l262 -812h-532z" />
<glyph unicode="B" horiz-adv-x="1106" d="M180 4l8 -4h264q102 0 162 4t98 12q38 10 74 24q104 42 164 132q58 92 58 208q0 88 -36 164q-36 74 -104 124q-36 28 -90 50q-56 22 -132 30q148 32 220 116t72 196q0 92 -36 160t-112 116q-36 24 -78 40q-44 16 -104 24t-148 8h-280v-1404zM246 56v2l4 -6v664h272 q88 0 156 -16t116 -44q72 -44 108 -116t36 -152v-8q0 -82 -38 -156q-40 -76 -136 -124q-32 -14 -66 -24t-82 -16q-48 -4 -120 -4h-250zM248 774l2 -4v580h264q84 0 144 -16t96 -40q56 -40 86 -100q28 -60 28 -138q-4 -84 -38 -140t-72 -80q-44 -30 -104 -46t-132 -16h-274z " />
<glyph unicode="C" horiz-adv-x="1026" d="M118 698q0 -158 36 -294t100 -226q80 -110 180 -154q96 -42 210 -42h10v2h2q90 0 176 30q88 28 164 84l-36 44q-66 -52 -142 -80q-74 -28 -154 -28h-9q-111 0 -203 48q-96 48 -166 166q-44 76 -70 188t-26 250q0 142 26 262q28 120 70 200q58 106 148 162q92 56 208 56 q84 0 152 -24t132 -74l36 44q-70 56 -148 80q-78 26 -170 26q-130 0 -234 -58t-172 -166q-56 -90 -88 -218q-32 -130 -32 -278z" />
<glyph unicode="D" horiz-adv-x="1188" d="M186 0h220h21q143 0 243 26q108 28 192 104q104 90 156 234t52 344q0 204 -58 352t-174 236q-60 44 -124 68t-144 32t-186 8h-196v-1404h-2zM252 56v1296h156q132 0 230 -24q96 -24 168 -88q56 -48 100 -120t68 -174q26 -102 26 -246q0 -196 -52 -324t-132 -206 q-72 -68 -172 -92q-92 -22 -212 -22h-20h-160v2v-2z" />
<glyph unicode="E" horiz-adv-x="966" d="M186 0h720v56h-656v648h500v56h-500v590h620l12 56h-696v-1404v2v-4z" />
<glyph unicode="F" horiz-adv-x="888" d="M186 0h66v708h506v52h-506v590h618l12 56h-696v-1404v2v-4z" />
<glyph unicode="G" horiz-adv-x="1190" d="M120 698q0 -164 34 -292t102 -220q84 -112 190 -158q106 -44 230 -44v2l-2 -2q98 0 190 24t168 70v620h-434l12 -56h360v-532q-58 -34 -134 -54t-156 -20q-114 0 -212 44q-100 44 -170 144q-54 80 -82 202q-28 120 -28 268q0 132 24 248t66 200q52 104 146 164 q96 60 216 60q90 0 166 -24t148 -76l30 40q-72 60 -156 88t-188 28q-120 0 -216 -54q-96 -52 -160 -144q-72 -98 -108 -230t-36 -296z" />
<glyph unicode="H" horiz-adv-x="1196" d="M188 0h64v720h696v-720h64v1404h-64v-628h-696v628h-64v-1404v2v-2z" />
<glyph unicode="I" horiz-adv-x="436" d="M188 0h64v1404h-64v-1404v2v-2z" />
<glyph unicode="J" horiz-adv-x="442" d="M-44 -206l32 -44v2v-6q72 24 128 64q58 40 92 96q20 36 32 80q10 44 14 104t4 148v1168h-66v-1168q0 -122 -8 -192t-32 -110q-28 -48 -82 -84t-114 -58z" />
<glyph unicode="K" horiz-adv-x="996" d="M186 0h66v1404h-66v-1404v2v-2zM274 742l604 -740l2 -2h82l-612 744l600 662h-82z" />
<glyph unicode="L" horiz-adv-x="882" d="M186 0h652l8 56h-594v1350h-66v-1404v2v-4z" />
<glyph unicode="M" horiz-adv-x="1472" d="M124 -2l4 2h64l100 1190q0 10 4 36q2 24 6 52q2 28 2 48q4 -28 18 -68q12 -40 22 -72l356 -1192h60l364 1204l36 132v-24q2 -20 4 -50q0 -28 2 -56l108 -1204h64l-126 1404h-96l-356 -1184q-14 -46 -22 -82q-8 -34 -10 -38q0 4 -8 40t-22 86l-356 1178h-94l-124 -1404v2z " />
<glyph unicode="N" horiz-adv-x="1220" d="M184 0v2l2 -2h68l-2 1104q0 40 -2 88q0 48 -2 86v48q4 -12 32 -68t68 -128l614 -1132h74v1404h-66l2 -1052v-78t2 -104v-84l-104 208l-606 1112h-80v-1404z" />
<glyph unicode="O" horiz-adv-x="1284" d="M132 698q0 -156 32 -280q32 -126 88 -214q32 -54 86 -106q52 -52 128 -84q78 -34 184 -34h-6q102 0 176 32t126 80t88 100q64 88 100 212q34 124 34 286q0 156 -28 278t-78 210q-28 54 -80 110t-132 94q-82 36 -198 38q-108 0 -188 -34q-78 -34 -132 -86t-86 -110 q-52 -88 -84 -212q-30 -124 -30 -280zM190 710q0 140 24 248t68 192q24 52 72 100t120 80t172 32q102 0 174 -36q72 -34 118 -86t70 -104q42 -82 66 -194t24 -260q0 -154 -26 -262t-74 -188q-28 -48 -72 -96q-44 -46 -112 -76q-68 -32 -164 -32v2l-6 2q-96 0 -168 32 t-120 80t-72 98q-44 84 -68 200q-26 116 -26 268z" />
<glyph unicode="P" horiz-adv-x="1018" d="M188 0h64v600h244q108 0 190 26q82 24 142 72q58 46 98 122q38 76 40 184q0 106 -44 190t-130 140q-56 36 -130 52t-186 16h-288v-1404v2zM250 652v696h212q104 0 176 -18q72 -16 118 -48q68 -48 104 -120t36 -166q-2 -88 -36 -152t-78 -100q-48 -42 -120 -66t-172 -24 h-240v2v-4z" />
<glyph unicode="Q" horiz-adv-x="1286" d="M122 690q0 -156 32 -282t88 -214q32 -52 84 -104t128 -88t184 -36q58 -10 102 -26q44 -14 84 -36q42 -20 90 -52q36 -20 80 -44q46 -24 94 -42q48 -16 92 -16l4 4q44 0 76 4t50 12l20 56q-18 -8 -50 -14q-30 -6 -62 -6q-42 0 -86 14t-80 32t-56 30q-40 24 -104 60 q-64 34 -134 50q74 12 126 44t86 72q36 40 58 80q62 88 98 212t36 286q0 156 -30 280t-80 212q-30 56 -84 112q-52 56 -134 94q-80 36 -192 38q-108 0 -188 -36t-134 -90q-54 -56 -86 -116q-52 -86 -82 -210t-30 -280zM188 710q0 140 24 250t68 192q24 52 72 104 q46 50 118 84t170 34q104 0 176 -36t116 -88t68 -104q40 -76 64 -192t24 -266q0 -152 -26 -262t-74 -190q-26 -48 -70 -96t-112 -80t-164 -32v2l2 -6q-96 0 -168 34q-72 32 -120 82t-72 98q-44 82 -70 202q-26 118 -26 270z" />
<glyph unicode="R" horiz-adv-x="1052" d="M186 0h66v652h120q56 0 92 -12t68 -44t74 -88q18 -24 52 -80q36 -56 78 -126q42 -68 82 -136t68 -116t32 -56h78l-292 484q-44 74 -86 114q-40 38 -92 58h10q178 0 282 92t108 272q-4 112 -44 186t-90 110q-52 42 -132 66t-214 24h-256v-1404zM252 696v654h194 q100 0 164 -16t112 -48q50 -32 88 -100q40 -68 42 -164q-2 -102 -38 -166q-36 -62 -84 -94q-42 -32 -110 -50q-68 -16 -174 -16h-194v2v-2z" />
<glyph unicode="S" horiz-adv-x="956" d="M42 106q88 -58 184 -86t208 -28v2l-2 -14q90 0 166 22q76 20 128 60q72 52 110 130t38 178q0 78 -24 140q-24 64 -64 108q-44 46 -102 74q-58 30 -126 50l-144 46q-62 20 -110 46q-48 28 -78 56q-36 40 -52 90q-16 52 -16 110q0 90 44 152q44 64 118 96t166 32 q96 0 172 -24t144 -72l32 48q-72 48 -158 76q-84 28 -192 28q-112 0 -202 -42q-88 -40 -140 -118q-52 -76 -52 -184q0 -68 20 -128q18 -60 62 -108q36 -36 92 -66q58 -32 122 -54l142 -44q54 -16 106 -40t92 -64q38 -36 58 -88t20 -118q0 -84 -28 -148t-84 -108 q-44 -36 -110 -54q-68 -18 -150 -18q-102 0 -190 28t-168 84z" />
<glyph unicode="T" horiz-adv-x="902" d="M30 1350h400v-1350v2l-2 -2h64v1350h404l8 56h-874v-56z" />
<glyph unicode="U" horiz-adv-x="1184" d="M178 410q0 -70 14 -136q12 -68 50 -132q44 -72 128 -112t222 -40v2l-4 -8q126 0 206 32t128 88q50 58 70 134t20 168v998h-66v-990q0 -72 -16 -140t-52 -120q-36 -48 -104 -80q-70 -32 -182 -32q-124 2 -192 40t-100 90q-30 48 -44 118q-12 72 -12 140v980h-66v-1000z " />
<glyph unicode="V" horiz-adv-x="1058" d="M18 1406l472 -1404v2l2 -4h64l476 1404h-68l-380 -1128q-16 -44 -28 -88q-14 -44 -22 -74t-10 -38l-32 104l-32 104l-372 1122h-70z" />
<glyph unicode="W" horiz-adv-x="1538" d="M60 1396l344 -1404v2l-8 6h82l258 1080q8 36 20 88t20 94q8 40 8 44q2 -4 10 -38q8 -36 18 -88q12 -52 24 -108l246 -1076h82l328 1404h-64l-244 -1068l-24 -112t-20 -100t-12 -56q-2 12 -10 50q-8 40 -20 92t-24 108l-248 1088h-68l-264 -1094q-12 -50 -24 -106t-20 -96 t-8 -44q0 4 -8 48q-10 46 -22 102t-22 96l-262 1088h-68z" />
<glyph unicode="X" horiz-adv-x="986" d="M12 0h76l392 716l420 -716h76l-456 764l364 640h-74l-334 -592l-346 592h-76l384 -644l-426 -762v2z" />
<glyph unicode="Y" horiz-adv-x="954" d="M-8 1406l452 -848v-556v2l-2 -4h66v556l456 850h-72l-364 -680l-32 -64t-20 -42q-4 10 -20 42l-32 64l-356 680h-76z" />
<glyph unicode="Z" horiz-adv-x="960" d="M66 0h790l14 56h-728l44 70l704 1224v56h-756l-18 -56h704l-44 -70l-710 -1232v-48v2v-2z" />
<glyph unicode="[" horiz-adv-x="492" d="M184 -320h248v48h-190v1720h190v48h-248v-1820v2v2z" />
<glyph unicode="\" horiz-adv-x="746" d="M40 1486l616 -1576v2l52 20l-616 1572z" />
<glyph unicode="]" horiz-adv-x="492" d="M58 -268v-48v2v-6h248v1820h-248v-48h190v-1720h-190z" />
<glyph unicode="^" horiz-adv-x="1122" d="M134 664v2l2 -2h60l364 720l364 -720h60l-400 786h-52z" />
<glyph unicode="_" horiz-adv-x="1024" d="M0 -156v-48v2v-2h1024v48h-1024z" />
<glyph unicode="`" horiz-adv-x="716" d="M172 1374l348 -204v2v-4l24 40l-336 226z" />
<glyph unicode="a" horiz-adv-x="958" d="M112 266q0 -70 28 -134t98 -104q72 -40 196 -40q88 0 160 36t132 106q8 -56 36 -92t74 -52l-8 -10l32 44q-60 28 -76 88q-13 48 -13 136q0 22 1 46l8 406v26q0 62 -8 112q-10 60 -38 104q-32 48 -84 72q-54 24 -134 24q-106 0 -198 -36t-172 -98l32 -44q68 56 154 92 q84 38 182 38q56 0 96 -16t64 -44q30 -32 42 -86q12 -52 12 -128l-2 -120q-14 0 -44 2h-62q-156 0 -270 -34t-176 -106t-62 -188zM170 262q0 148 112 216q114 66 322 66h56q30 0 50 -2v-56v-78v-74v-40v-56v-54q-48 -72 -120 -112t-158 -40v2v-4q-100 0 -156 32 q-58 32 -82 84t-24 116z" />
<glyph unicode="b" horiz-adv-x="1030" d="M142 -6h64q12 28 18 60q6 30 6 66q52 -70 132 -106q78 -36 160 -36l2 6q100 0 176 46q76 44 132 136q36 58 60 148q22 90 22 210q0 128 -28 224q-26 96 -80 164q-50 64 -120 94t-150 30q-88 0 -164 -40q-76 -38 -136 -112v384q0 108 -8 160t-16 64l-62 -12q8 -16 16 -66 q8 -48 8 -142v-1022q0 -100 -8 -160t-24 -96zM238 182v640q56 76 132 116t160 40q68 0 128 -26q60 -28 104 -82q44 -56 68 -144q22 -88 22 -208t-24 -208t-56 -134q-42 -68 -108 -106t-148 -38v2l-2 2q-76 0 -152 38q-76 36 -124 108z" />
<glyph unicode="c" horiz-adv-x="850" d="M108 500q0 -116 24 -206t66 -154q52 -78 132 -118q78 -40 180 -40v2q88 0 158 30q70 32 130 96l-34 40q-52 -56 -116 -84t-136 -28q-120 2 -194 66t-110 168t-36 224q0 140 28 232t76 148q44 56 104 82q60 28 124 28q68 0 124 -24q54 -24 104 -70l36 40q-48 48 -112 76 t-152 28q-76 0 -140 -28t-120 -84q-64 -64 -100 -164t-36 -260z" />
<glyph unicode="d" horiz-adv-x="1036" d="M116 500q0 -108 24 -202q24 -96 66 -160q50 -76 126 -116t178 -40l-2 2q90 0 166 36t128 114q0 -36 8 -76t16 -62h66q-16 42 -24 106t-8 176v1200l-64 12v-480v-68v-46q-48 62 -120 98t-166 36q-68 0 -128 -26t-120 -82q-74 -72 -110 -178t-36 -244zM186 510 q0 124 26 210t72 146q44 56 108 86t132 30q108 -2 176 -40q68 -40 102 -92v-644q-40 -76 -112 -122t-176 -46v2l-4 -2q-88 0 -152 36q-64 38 -104 110q-32 52 -50 140t-18 186z" />
<glyph unicode="e" horiz-adv-x="946" d="M106 518q0 -156 46 -276t138 -188t232 -68l4 -2q98 0 174 26t136 74l-26 40q-54 -44 -122 -66t-148 -22q-96 0 -164 36t-108 92q-32 44 -56 116q-24 70 -32 162q-2 24 -2 52v36h672v22q0 108 -14 182q-16 72 -40 120q-26 50 -62 86q-38 40 -96 68t-140 28 q-92 -2 -160 -38t-112 -88q-60 -68 -90 -164t-30 -228zM176 580v2l4 -2q6 136 50 228t114 136t150 44q84 0 140 -36q58 -36 90 -92q26 -44 42 -112t16 -168h-606z" />
<glyph unicode="f" horiz-adv-x="492" d="M94 966h98v-972v2l-8 4h66v972h240l20 48h-258v220q0 92 40 142t114 50q38 0 74 -12t68 -32l24 44q-36 24 -78 36t-90 12q-50 0 -86 -16t-60 -40t-44 -68t-22 -122v-220h-98v-48z" />
<glyph unicode="g" horiz-adv-x="1002" d="M98 -132q0 -76 42 -136q44 -60 136 -96t240 -36l10 16q114 0 200 32q88 32 136 100t48 176q0 62 -24 116q-26 52 -74 86q-32 22 -88 36t-148 14h-80h-80h-48q-70 0 -98 20t-28 48q2 48 66 88t164 68q15 -1 31 -1q32 0 67 5q52 8 100 28q76 36 120 108t44 172 q0 74 -30 134t-86 104q18 -6 38 -10t44 -4q44 0 80 12q38 12 74 40l-40 40q-32 -24 -64 -36t-72 -12q-56 0 -96 12t-84 24t-112 12q-160 -2 -256 -90t-98 -240q0 -68 30 -128q32 -60 88 -104t134 -62q-98 -26 -156 -70t-58 -100q0 -52 40 -84t136 -32h50h74h82q90 0 142 -16 q54 -16 80 -38q34 -30 50 -70t16 -84q-2 -134 -90 -194t-234 -60q-92 0 -160 16q-68 18 -112 50q-42 28 -62 68t-20 88q0 30 8 58t22 52l-66 -8q-12 -24 -20 -52t-8 -60zM206 706q0 132 76 206t208 74q132 -2 204 -78t72 -196q0 -134 -76 -202q-74 -68 -204 -68v2l2 -2 q-88 0 -152 36q-62 36 -96 96t-34 132z" />
<glyph unicode="h" horiz-adv-x="1004" d="M146 1472q8 -16 16 -66q8 -48 8 -142v-1276v2l6 10h60v800q72 90 156 134t164 44q54 0 94 -16t64 -40q26 -30 42 -74t16 -98v-756h60v764q0 56 -14 98q-14 44 -36 76q-26 40 -78 68t-128 28q-100 0 -188 -48t-156 -124v36v64v304q0 108 -8 160t-16 64z" />
<glyph unicode="i" horiz-adv-x="416" d="M150 1348q0 -24 16 -40q16 -14 40 -14h2q22 0 38 14q16 16 16 40t-16 40t-40 16t-40 -16t-16 -40zM176 0h64v1036l-64 -10v-1024v2v-4z" />
<glyph unicode="j" horiz-adv-x="416" d="M26 -350l30 -40v2v-8q44 16 84 48t66 86q20 40 28 100q6 60 6 128v1072l-64 -12v-1052q0 -84 -8 -146q-10 -62 -42 -106t-100 -72zM154 1348q0 -24 16 -40q16 -14 36 -14q24 0 40 14q16 16 16 40t-16 40t-40 16q-20 0 -36 -16t-16 -40z" />
<glyph unicode="k" horiz-adv-x="866" d="M150 1482q8 -16 16 -66q8 -48 8 -144v-1274l2 2h60v1268q0 110 -8 162t-16 64zM260 568l520 -568v2l-2 -2h82l-524 568l452 452h-80z" />
<glyph unicode="l" horiz-adv-x="424" d="M156 1482q8 -16 16 -66q8 -48 8 -142v-1130q0 -48 8 -80t24 -48t38 -22q20 -8 44 -8v2q20 0 36 4t34 12l-14 44l-20 -8q-10 -2 -18 -2q-36 0 -54 26q-16 26 -16 94v1110q0 110 -8 162t-16 64z" />
<glyph unicode="m" horiz-adv-x="1512" d="M146 1014q8 -16 20 -60q10 -44 10 -136v-824v2v4h60v808q64 84 140 128t152 44q56 0 92 -16t56 -40q26 -28 38 -66t12 -90v-768h64v792q64 92 140 140t152 48q108 -2 154 -62t46 -156v-764h64v768q0 124 -64 196t-186 74q-88 -2 -172 -54t-140 -136q-16 82 -76 134 t-166 54q-90 -2 -170 -50t-132 -118q0 68 -12 108t-20 54z" />
<glyph unicode="n" horiz-adv-x="996" d="M148 1012q8 -16 20 -60q10 -44 10 -132v-824v2l-2 2h60v810q68 84 154 128q84 44 164 44q52 0 92 -16t62 -40q28 -32 44 -74q16 -44 16 -104v-750h64v776q0 48 -16 92q-16 42 -40 74q-28 40 -80 64t-126 24q-94 0 -178 -44t-154 -122q0 72 -10 112t-18 54z" />
<glyph unicode="o" horiz-adv-x="1030" d="M108 500q0 -116 24 -204q24 -90 64 -158q26 -44 70 -82t106 -62t142 -24l2 10q80 0 144 24t108 64t70 86q40 64 60 150q22 84 22 196q0 118 -24 206q-24 90 -66 158q-24 40 -68 78t-108 62q-62 24 -144 24q-78 0 -138 -24q-60 -22 -104 -58t-68 -76q-44 -68 -68 -164 q-24 -94 -24 -206zM180 520q0 100 20 184t52 144q20 36 56 68t88 52t120 20q100 -2 168 -46t100 -102q36 -60 54 -144q20 -82 20 -194q0 -104 -16 -180t-48 -134q-20 -40 -56 -76t-88 -60q-52 -22 -122 -22v2l-12 2q-68 0 -120 22t-90 54q-36 34 -56 70q-30 52 -50 140 t-20 200z" />
<glyph unicode="p" horiz-adv-x="1024" d="M140 1012q8 -16 16 -58t8 -136v-1242l8 8l60 12v520q52 -64 128 -100t158 -36q100 0 176 44q76 46 132 134q36 58 58 146t22 210q0 134 -28 230t-84 166q-50 62 -118 90t-146 28q-90 0 -168 -40q-80 -40 -136 -114q0 64 -6 100q-8 36 -16 48zM232 182v636q60 80 136 120 t156 40q68 0 128 -28t102 -88q40 -56 62 -146t22 -206q0 -108 -20 -192t-48 -132q-44 -74 -112 -114t-154 -40v2h6q-74 0 -150 36q-74 36 -128 112z" />
<glyph unicode="q" horiz-adv-x="1020" d="M118 496q0 -120 28 -214t80 -166q48 -66 116 -102t168 -36q88 0 164 40t128 120v-556l-2 4l60 14v1216q0 94 8 144t12 58h-60q-4 -6 -10 -42q-4 -36 -6 -80q-56 68 -128 104t-164 36q-80 0 -152 -36t-130 -104q-56 -68 -84 -168t-28 -232zM180 512q0 124 24 208 q26 84 70 140q44 60 108 92t134 32q104 -2 176 -46q72 -42 108 -98v-628q-44 -82 -116 -126t-168 -44v2l-2 -6q-84 0 -148 34q-62 32 -102 92q-36 52 -60 140t-24 208z" />
<glyph unicode="r" horiz-adv-x="588" d="M148 1012q8 -16 18 -60q8 -44 8 -134v-824v2l2 4h60v708q0 58 20 100q18 40 64 80q44 44 90 64q48 20 96 20q12 0 24 -2q12 -4 20 -8l28 64q-6 2 -22 6q-14 4 -34 4q-48 0 -94 -18q-48 -18 -98 -60q-28 -24 -52 -52t-40 -58q0 76 -8 116t-20 64z" />
<glyph unicode="s" horiz-adv-x="806" d="M62 68q64 -44 148 -68q86 -24 182 -24v2v2q160 2 248 82q88 82 88 216v6q0 92 -56 158q-56 68 -192 96l-130 26q-92 18 -140 66t-48 140t60 152q62 60 190 62q72 0 134 -20q64 -20 112 -56l28 48q-52 38 -120 58t-152 20q-104 0 -174 -36t-106 -96q-36 -62 -36 -138 q0 -112 64 -176q62 -62 174 -86l124 -24q116 -24 164 -80q46 -56 46 -130v-6q0 -104 -70 -170q-70 -64 -198 -66q-92 0 -172 24t-140 66z" />
<glyph unicode="t" horiz-adv-x="560" d="M56 970h132v-772q0 -64 16 -108t44 -68q20 -20 52 -32t76 -12v2q44 0 76 8t60 22l-10 42q-22 -10 -50 -16t-64 -6q-76 0 -110 48q-32 48 -32 132v760h232l20 48h-248q0 102 8 174t16 104l-66 -14q-6 -36 -14 -108q-6 -72 -6 -156h-132v-48z" />
<glyph unicode="u" horiz-adv-x="998" d="M164 246q0 -52 16 -96t40 -76q26 -40 78 -64t130 -24q100 0 186 44q84 44 148 122q4 -64 18 -104t36 -64v2v-6l44 36q-20 24 -30 68t-10 128v816l-60 -10v-802q-66 -92 -148 -140q-84 -48 -168 -48q-52 0 -92 16t-64 40q-32 32 -48 76t-16 104v768l-60 -12v-774z" />
<glyph unicode="v" horiz-adv-x="856" d="M28 1014l360 -1028v2l4 2h64l370 1030h-64l-308 -868q-10 -28 -18 -52t-10 -32h-2q-6 20 -14 42q-6 20 -14 42l-304 876z" />
<glyph unicode="w" horiz-adv-x="1284" d="M38 1016l288 -1028v2v2h60l234 866l16 76h4l18 -78l236 -864h66l284 1028h-64l-228 -846l-12 -48l-8 -48h-4l-28 98l-224 842h-68l-228 -844l-20 -92h-6q-4 24 -10 48q-6 26 -12 50l-234 848z" />
<glyph unicode="x" horiz-adv-x="858" d="M8 0v2l4 -2h74l332 514l340 -514h76l-384 564l296 456h-74l-256 -410l-268 410h-76l308 -456z" />
<glyph unicode="y" horiz-adv-x="836" d="M26 1012l278 -786q16 -42 30 -90q14 -50 24 -90t14 -52l32 6l-12 -28q-32 -106 -64 -176t-74 -110t-102 -60l18 -44v2h4q76 22 128 74t88 132q36 82 72 190l344 1040h-70l-266 -826l-48 -148h-2q-2 12 -18 68t-40 126l-276 792z" />
<glyph unicode="z" horiz-adv-x="808" d="M60 0h628l28 48h-580l592 918v52h-624v-52h556l-600 -918v-52v2v2z" />
<glyph unicode="{" horiz-adv-x="570" d="M80 556q44 -4 84 -32q40 -30 66 -84t26 -132v-378q2 -128 54 -192t132 -64v2l2 4h84v48h-76q-68 0 -102 56t-34 158v376q-2 100 -34 158t-72 82t-66 24v4q26 0 66 28t72 86q32 56 34 148v382q0 98 34 156t102 58h74v48h-84q-80 0 -132 -66q-52 -64 -54 -188v-382 q0 -74 -26 -126q-28 -54 -68 -84t-82 -34v-56z" />
<glyph unicode="|" horiz-adv-x="424" d="M184 -424v-2h56v1974h-56v-1974v2z" />
<glyph unicode="}" horiz-adv-x="570" d="M44 -266v-48v2v-8h82q80 0 132 64t54 192v378q0 78 26 132q28 54 68 84q40 28 82 32v56q-42 4 -82 34t-68 84q-26 52 -26 126v382q-2 124 -54 188q-52 66 -132 66h-82v-48h72q68 0 104 -58t36 -156v-382q2 -92 34 -148q32 -58 72 -86t66 -28v-4q-26 0 -66 -24t-72 -82 t-34 -158v-376q0 -102 -36 -158q-34 -56 -102 -56h-74z" />
<glyph unicode="~" horiz-adv-x="1188" d="M140 566l28 -40v2l6 -8q36 60 84 104t126 46q56 0 108 -20q54 -20 106 -48t108 -48q54 -20 114 -20q54 0 94 24q40 22 70 58q28 36 48 76l-28 40q-26 -56 -70 -98q-44 -44 -112 -46q-56 0 -110 20q-52 20 -104 48t-108 48t-116 20q-64 0 -108 -24t-76 -60t-60 -74z" />
<glyph unicode="&#xa0;" horiz-adv-x="462" d="M0 0v2v-2z" />
<glyph unicode="&#xa2;" horiz-adv-x="840" d="M84 490q0 -114 24 -202q24 -90 66 -154q48 -72 118 -112t162 -48v-152l2 4h48v152q80 4 146 34q64 28 122 88l-36 40q-48 -52 -108 -80t-126 -32v956q60 -4 110 -26q52 -22 98 -62l36 40q-44 42 -104 70t-140 32v160h-48v-160q-68 -4 -124 -32t-106 -80 q-62 -64 -100 -168q-40 -104 -40 -268zM154 484q0 140 28 236t76 154q40 52 90 80t106 32v-956v2l2 -2q-78 8 -134 44t-92 96q-40 66 -58 146t-18 168z" />
<glyph unicode="&#xa3;" horiz-adv-x="952" d="M68 0h796v60h-508v616h332v52h-332v254q-2 162 58 258q62 96 214 98q62 0 114 -20t100 -66l44 44q-52 50 -116 74t-138 24q-176 -2 -260 -110t-84 -300v-256h-196v-52h196v-616h-220v-60v2v-2z" />
<glyph unicode="&#xa5;" horiz-adv-x="966" d="M20 1360l340 -644h-324v-48h352l60 -112v-108h-412v-48h412v-400v2v-2h66v400h430v48h-430v108l60 112h368v48h-342l344 644h-72l-392 -740l-384 740h-76z" />
<glyph unicode="&#xa8;" horiz-adv-x="754" d="M190 1258q0 -24 14 -36q14 -14 34 -14v2l-2 -2q20 0 34 14q14 12 14 36q0 20 -12 34q-14 14 -34 14t-34 -14t-14 -34zM470 1258q0 -24 14 -36q14 -14 34 -14t34 14q14 12 14 36q0 20 -14 34t-34 14t-34 -14t-14 -34z" />
<glyph unicode="&#xa9;" horiz-adv-x="1702" d="M124 708q4 -208 100 -372q98 -164 262 -260t364 -98v2q148 0 280 56q132 54 232 154q100 98 156 230t56 288t-56 288t-156 230q-100 100 -232 156t-280 56q-200 -2 -364 -98t-262 -260q-96 -164 -100 -372zM180 708q2 196 92 350t242 244t336 92q186 -2 338 -92t242 -244 q92 -154 94 -350q-2 -196 -94 -350q-90 -154 -242 -244q-152 -88 -338 -90q-184 2 -336 90q-152 90 -242 244t-92 350zM536 706q0 -94 22 -172q20 -78 60 -134q48 -68 112 -100t144 -32v2l-2 -4q56 0 110 18q52 18 100 52l-28 32q-40 -28 -84 -44t-92 -16q-72 0 -130 32 t-98 100q-28 46 -44 114t-16 154q0 84 16 152t42 120q32 60 88 96t124 36q56 0 98 -14q44 -14 84 -42l24 32q-42 34 -92 50t-114 16q-84 0 -148 -42q-66 -44 -108 -120q-32 -54 -50 -126t-18 -160z" />
<glyph unicode="&#xab;" horiz-adv-x="840" d="M112 490l264 -396v2l44 32l-242 364l242 366l-44 28zM420 490l264 -396v2l44 32l-242 364l242 366l-44 28z" />
<glyph unicode="&#xad;" horiz-adv-x="612" d="M112 536h392v60h-392v-60v2v-2z" />
<glyph unicode="&#xae;" horiz-adv-x="1702" d="M124 708q4 -210 100 -374q98 -164 262 -258q164 -96 364 -98v2q148 0 280 56q132 54 232 154q100 98 158 230q56 132 56 288t-56 288q-58 132 -158 230q-100 100 -232 156t-280 56q-200 -2 -364 -98t-262 -260q-96 -164 -100 -372zM178 708q2 194 92 348t242 244t338 92 q186 -2 338 -92t242 -244q92 -154 94 -348q-2 -196 -94 -350q-90 -154 -242 -244q-152 -88 -338 -90q-186 2 -338 90q-152 90 -242 244t-92 350zM638 288l6 -6h48v402h64q30 0 58 -12q26 -12 46 -36q42 -44 80 -106q38 -64 74 -130q24 -40 40 -72t20 -44h60q-6 8 -32 56 q-24 48 -60 108q-20 32 -42 70q-22 36 -46 74q-18 28 -42 52t-58 44q112 4 176 64t64 162q-2 68 -26 112t-56 70t-82 40q-52 16 -136 16h-156v-864zM694 720v384h96q68 0 110 -10q40 -10 68 -30q32 -18 56 -54q24 -38 24 -102q0 -44 -16 -80t-44 -60q-30 -24 -72 -36 q-44 -12 -100 -12h-120v2z" />
<glyph unicode="&#xb4;" horiz-adv-x="716" d="M246 1206l22 -40v2l348 204l-34 60z" />
<glyph unicode="&#xb8;" horiz-adv-x="674" d="M176 -350q28 -20 68 -36q40 -14 88 -14v2l-4 -6q96 2 140 50q44 46 44 106q0 54 -36 94t-116 42h-12h-16l36 112h-52l-48 -146l12 -8q16 4 32 6t30 2q54 0 86 -28t32 -70q0 -46 -32 -78t-100 -32q-36 0 -70 12t-62 32z" />
<glyph unicode="&#xbb;" horiz-adv-x="840" d="M112 124l44 -28v2v-2l264 396l-264 396l-44 -32l240 -364zM416 856l244 -364l-242 -368l44 -28h2l264 396l-264 396z" />
<glyph unicode="&#x2c6;" horiz-adv-x="748" d="M78 1200l28 -36v2l2 -2l262 188l264 -188l32 36l-296 226z" />
<glyph unicode="&#x2dc;" horiz-adv-x="738" d="M90 1244l24 -34v2l2 4q24 26 52 44t68 18q50 0 86 -18l72 -36q36 -16 88 -18q60 2 100 26t64 56l-24 36q-24 -28 -52 -48t-70 -20q-50 0 -86 18q-36 16 -72 34t-88 18q-60 0 -100 -24t-64 -58z" />
<glyph unicode="&#x400;" horiz-adv-x="966" d="M186 0h720v56h-656v648h500v56h-500v590h620l12 56h-696v-1404v-2zM304 1728l348 -204v2v-6l24 40l-336 224z" />
<glyph unicode="&#x401;" horiz-adv-x="966" d="M186 0h720v56h-656v648h500v56h-500v590h620l12 56h-696v-1404v-2zM352 1608q0 -22 14 -34q14 -14 34 -14v2v-2q20 0 34 14q14 12 14 34q0 20 -12 34q-14 14 -36 14q-20 0 -34 -14t-14 -34zM636 1608q0 -22 14 -34q14 -14 34 -14t34 14q14 12 14 34q0 20 -14 34t-34 14 t-34 -14t-14 -34z" />
<glyph unicode="&#x402;" horiz-adv-x="1256" d="M38 1354h380v-1350v2l-4 -6h64v728q68 28 148 44t154 16q120 0 188 -44q70 -44 98 -124t28 -188q0 -72 -12 -152t-52 -144q-32 -48 -86 -76q-56 -28 -132 -28q-44 0 -88 10q-46 10 -82 30l-32 16l-16 -48q48 -28 104 -42q58 -16 114 -16q80 0 152 30t118 94q46 68 62 156 t16 184q0 120 -38 208t-118 138t-208 50q-76 0 -156 -16q-82 -16 -158 -44v572h424l6 56h-874v-56z" />
<glyph unicode="&#x403;" horiz-adv-x="884" d="M188 0h60v1350h590l6 56h-656v-1404v-2zM372 1556l20 -40v2v2l350 204l-34 56z" />
<glyph unicode="&#x404;" horiz-adv-x="1058" d="M122 710q0 -180 40 -318q40 -136 120 -226q80 -92 180 -132q100 -42 212 -42q92 0 184 30q92 28 168 84l-32 52v2l-6 -12q-70 -56 -150 -82q-80 -28 -160 -28q-110 0 -208 46t-166 148q-48 76 -76 188t-28 264v24h576v56h-572q16 298 138 454q120 156 320 156 q86 0 162 -24t140 -76l30 48q-68 56 -152 80q-84 26 -180 26q-164 0 -284 -88t-188 -248q-68 -162 -68 -382z" />
<glyph unicode="&#x405;" horiz-adv-x="956" d="M42 106q88 -58 184 -86t208 -28v2l-2 -14q90 0 166 22q76 20 128 60q72 52 110 130t38 178q0 78 -24 140q-24 64 -64 108q-44 46 -102 74q-58 30 -126 50l-144 46q-62 20 -110 46q-48 28 -78 56q-36 40 -52 90q-16 52 -16 110q0 90 44 152q44 64 118 96t166 32 q96 0 172 -24t144 -72l32 48q-72 48 -158 76q-84 28 -192 28q-112 0 -202 -42q-88 -40 -140 -118q-52 -76 -52 -184q0 -68 20 -128q18 -60 62 -108q36 -36 92 -66q58 -32 122 -54l142 -44q54 -16 106 -40t92 -64q38 -36 58 -88t20 -118q0 -84 -28 -148t-84 -108 q-44 -36 -110 -54q-68 -18 -150 -18q-102 0 -190 28t-168 84z" />
<glyph unicode="&#x406;" horiz-adv-x="436" d="M188 0h64v1404h-64v-1404v2v-2z" />
<glyph unicode="&#x407;" horiz-adv-x="436" d="M30 1608q0 -22 14 -34q14 -14 34 -14v2v-2q20 0 34 14q14 12 14 34q0 20 -14 34q-12 14 -34 14q-20 0 -34 -14t-14 -34zM188 0h64v1404h-64v-1404zM312 1608q0 -22 14 -34q14 -14 34 -14t34 14q14 12 14 34q0 20 -14 34t-34 14t-34 -14t-14 -34z" />
<glyph unicode="&#x408;" horiz-adv-x="442" d="M-44 -206l32 -44v2v-6q72 24 128 64q58 40 92 96q20 36 32 80q10 44 14 104t4 148v1168h-66v-1168q0 -122 -8 -192t-32 -110q-28 -48 -82 -84t-114 -58z" />
<glyph unicode="&#x409;" horiz-adv-x="1740" d="M32 38l16 -56l30 4q40 8 72 22q32 16 68 52q32 36 56 104q24 66 40 150t24 172q8 66 16 144q8 76 12 152q6 76 10 140l20 430h486v-1350h344q96 0 176 24t140 72q64 48 100 124t36 184q0 104 -34 180q-36 76 -100 124q-60 44 -140 64q-82 20 -178 20h-280l-4 2v610h-608 l-16 -340q-4 -68 -10 -156q-4 -88 -12 -176t-16 -156q-16 -172 -44 -300q-28 -126 -76 -176q-24 -24 -50 -40q-28 -16 -54 -20zM942 60v680h284q84 0 152 -20t118 -62q52 -40 80 -104t28 -152v2v-2q0 -88 -28 -152t-80 -106q-52 -44 -120 -64t-150 -20h-284z" />
<glyph unicode="&#x40a;" horiz-adv-x="1796" d="M184 2h64v742h684v-742h344q94 0 174 24t140 72q64 48 100 124t36 184q0 104 -34 180q-36 76 -100 124q-60 44 -142 64q-80 20 -176 20h-280l2 2v610h-64v-610h-684v610h-64v-1404zM998 60v680h284q84 0 152 -20t118 -62q52 -40 80 -104t28 -152v2v-2q0 -88 -28 -152 t-80 -106q-52 -44 -120 -64t-150 -20h-284z" />
<glyph unicode="&#x40b;" horiz-adv-x="1312" d="M38 1350h380v-1350v2l-4 -2h64v728q68 28 148 44t154 16q120 0 188 -44q70 -44 98 -124t28 -188v-432h66v444q0 118 -38 206q-38 90 -118 138q-80 50 -208 50q-76 0 -156 -16q-82 -16 -158 -44v572h424l6 56h-874v-56z" />
<glyph unicode="&#x40c;" horiz-adv-x="1100" d="M194 0h66v720h236q76 0 116 -36q40 -34 60 -90t32 -118l56 -228q18 -82 38 -134q20 -54 60 -82q40 -30 120 -40l56 -8l16 52l-48 8q-56 12 -86 36q-32 26 -48 68q-16 40 -32 100l-76 282q-16 68 -48 128t-96 84v4q52 20 82 56q28 36 44 80t26 84l52 204q14 58 30 96 q14 38 42 62q26 22 78 34l56 12l-16 48h-6l-60 -8q-62 -8 -98 -34q-36 -24 -56 -68t-32 -104l-44 -204q-12 -60 -32 -112t-60 -84t-112 -32h-250v628h-66v-1404zM408 1556l20 -40v2l2 2l350 204l-36 56z" />
<glyph unicode="&#x40d;" horiz-adv-x="1216" d="M186 0h82l614 1160q8 16 26 48l32 64t24 50v-56v-72v-54v-1140h66v1404h-82l-614 -1156q-8 -16 -26 -48l-32 -64l-24 -48v56v76v56v1132h-66v-1404v-4zM396 1728l348 -204v2v-6l24 40l-336 224z" />
<glyph unicode="&#x40e;" horiz-adv-x="916" d="M30 1404l408 -1000l44 2l-30 -92q-28 -88 -60 -144t-78 -88t-118 -46l-40 -8l12 -52l28 4q108 16 168 60q58 44 94 124t72 196l360 1044h-64l-332 -960l-398 960h2h-68zM168 1700q40 -76 110 -128q70 -50 176 -52q102 2 172 52q72 48 112 124l-44 36v2l-2 2 q-34 -56 -92 -98q-56 -42 -144 -44q-88 2 -146 42t-94 100z" />
<glyph unicode="&#x40f;" horiz-adv-x="1184" d="M186 0h376v-372v2l-2 -2h64v372h374v1404h-66v-1350h-680v1350h-66v-1404z" />
<glyph unicode="&#x410;" horiz-adv-x="1074" d="M28 0h64l156 480h568l156 -480h72l-464 1404h-84zM266 532v2l2 -2l268 812l262 -812h-532z" />
<glyph unicode="&#x411;" horiz-adv-x="1058" d="M188 4h344q98 0 182 24t146 72q64 48 100 124t36 184q0 104 -34 180q-36 76 -100 124q-62 48 -146 70q-84 20 -184 20h-280l-2 -2v552h636l8 56h-706v-1404zM252 58v692h284q84 0 154 -22q72 -22 124 -64q48 -42 76 -106q28 -66 28 -154v2l2 -6q0 -86 -30 -152 q-28 -66 -80 -108t-122 -62t-152 -20h-284z" />
<glyph unicode="&#x412;" horiz-adv-x="1106" d="M180 4l8 -4h264q102 0 162 4t98 12q38 10 74 24q104 42 164 132q58 92 58 208q0 88 -36 164q-36 74 -104 124q-36 28 -90 50q-56 22 -132 30q148 32 220 116t72 196q0 92 -36 160t-112 116q-36 24 -78 40q-44 16 -104 24t-148 8h-280v-1404zM246 56v2l4 -6v664h272 q88 0 156 -16t116 -44q72 -44 108 -116t36 -152q2 -86 -38 -164q-40 -76 -136 -124q-32 -14 -66 -24t-82 -16q-48 -4 -120 -4h-250zM248 774l2 -4v580h264q84 0 144 -16t96 -40q56 -40 86 -100q28 -60 28 -138q-4 -84 -38 -140t-72 -80q-44 -30 -104 -46t-132 -16h-274z" />
<glyph unicode="&#x413;" horiz-adv-x="884" d="M188 0h60v1350h590l6 56h-656v-1404v2v-4z" />
<glyph unicode="&#x414;" horiz-adv-x="1180" d="M50 64v-430h64v372l6 -6h896v-372h64v430h-98v1348h-620l-10 -212q-8 -142 -20 -270t-32 -252t-52 -252q-22 -84 -50 -172q-28 -90 -62 -184h-86zM206 58v2l2 -4q32 92 62 194q28 102 52 214q36 156 56 324q22 168 30 346l12 216h496v-1292h-710z" />
<glyph unicode="&#x415;" horiz-adv-x="966" d="M186 0h720v56h-656v648h500v56h-500v590h620l12 56h-696v-1404v2v-4z" />
<glyph unicode="&#x416;" horiz-adv-x="1692" d="M56 34l16 -52l56 8q78 10 118 40t60 82q20 54 38 136l56 228q14 62 34 118t60 90q40 36 114 36h204v-720h66v720h204q74 0 114 -36q40 -34 60 -90t34 -118l56 -228q18 -82 38 -134q20 -54 60 -82q40 -30 118 -40l56 -8l16 52l-48 8q-58 12 -88 36q-30 26 -46 68 q-16 40 -32 100l-78 282q-16 68 -48 128t-96 84v4q52 20 82 56q28 36 44 80t26 84l52 204q16 58 30 96t42 62q28 22 80 34l56 12l-16 48l-60 -8q-60 -8 -96 -34q-36 -24 -56 -68t-32 -104l-44 -204q-12 -60 -32 -112t-60 -84t-114 -32h-216v628h-66v-628h-216q-74 0 -114 32 t-60 84t-32 112l-44 204q-12 62 -32 104q-20 44 -56 70q-36 24 -96 32l-60 8l-16 -48v2l-12 -4l56 -12q52 -12 80 -34q28 -24 42 -62t30 -96l52 -204q10 -40 26 -84t44 -80q30 -36 82 -56v-4q-64 -24 -96 -84t-48 -128l-78 -282q-16 -60 -32 -100q-16 -42 -46 -68 q-30 -24 -88 -36z" />
<glyph unicode="&#x417;" horiz-adv-x="968" d="M38 92q28 -16 80 -40q50 -24 126 -44t176 -20q136 0 236 52t156 142t56 204q-2 152 -94 244t-248 108v6q126 28 202 112t78 228q0 110 -50 186q-48 76 -134 116q-84 40 -192 40q-92 0 -184 -32t-168 -84l32 -40q66 46 148 74t178 28q142 0 226 -82q84 -80 86 -224 q0 -84 -42 -154q-40 -70 -120 -114q-82 -44 -202 -44h-84v-52h100v2h-8q208 -2 310 -90q100 -88 100 -240q0 -100 -48 -176t-134 -120t-202 -44q-60 -2 -152 18t-196 88z" />
<glyph unicode="&#x418;" horiz-adv-x="1216" d="M186 0h82l614 1160q8 16 26 48l32 64t24 50v-56v-72v-54v-1140h66v1404h-82l-614 -1156q-8 -16 -26 -48l-32 -64l-24 -48v56v76v56v1132h-66v-1404v2v-6z" />
<glyph unicode="&#x419;" horiz-adv-x="1216" d="M186 0h82l614 1160q8 16 26 48l32 64t24 50v-56v-72v-54v-1140h66v1404h-82l-614 -1156q-8 -16 -26 -48l-32 -64l-24 -48v56v76v56v1132h-66v-1404v-4zM322 1700q40 -76 110 -128q70 -50 174 -52q104 2 174 52q70 48 110 124l-44 36v2l-2 2q-36 -56 -92 -98t-144 -44 q-88 2 -146 42t-92 100z" />
<glyph unicode="&#x41a;" horiz-adv-x="1100" d="M194 0h66v720h236q76 0 116 -36q40 -34 60 -90t32 -118l56 -228q18 -82 38 -134q20 -54 60 -82q40 -30 120 -40l56 -8l16 52l-48 8q-56 12 -86 36q-32 26 -48 68q-16 40 -32 100l-76 282q-16 68 -48 128t-96 84v4q52 20 82 56q28 36 44 80t26 84l52 204q14 58 30 96 q14 38 42 62q26 22 78 34l56 12l-16 48v2l-6 -2l-60 -8q-62 -8 -98 -34q-36 -24 -56 -68t-32 -104l-44 -204q-12 -60 -32 -112t-60 -84t-112 -32h-250v628h-66v-1404z" />
<glyph unicode="&#x41b;" horiz-adv-x="1148" d="M36 40l16 -56v2l-4 -2l30 4q40 8 72 22q32 16 68 52q32 36 56 104q24 66 40 150t24 170q8 68 16 144q8 78 12 154q6 76 10 140l20 430h504v-1350h66v1404h-628l-16 -340q-4 -68 -10 -156q-4 -88 -12 -176t-16 -156q-16 -172 -44 -298t-76 -178q-24 -24 -50 -40 q-28 -16 -54 -20z" />
<glyph unicode="&#x41c;" horiz-adv-x="1472" d="M124 -2l4 2h64l100 1190q0 10 4 36q2 24 6 52q2 28 2 48q4 -28 18 -68q12 -40 22 -72l356 -1192h60l364 1204l36 132v-24q2 -20 4 -50q0 -28 2 -56l108 -1204h64l-126 1404h-96l-356 -1184q-14 -46 -22 -82q-8 -34 -10 -38q0 4 -8 40t-22 86l-356 1178h-94l-124 -1404v2z " />
<glyph unicode="&#x41d;" horiz-adv-x="1196" d="M188 0h64v720h696v-720h64v1404h-64v-628h-696v628h-64v-1404v2v-2z" />
<glyph unicode="&#x41e;" horiz-adv-x="1284" d="M132 698q0 -156 32 -280q32 -126 88 -214q32 -54 86 -106q52 -52 128 -84q78 -34 184 -34h-6q102 0 176 32t126 80t88 100q64 88 100 212q34 124 34 286q0 156 -28 278t-78 210q-28 54 -80 110t-132 94q-82 36 -198 38q-108 0 -188 -34q-78 -34 -132 -86t-86 -110 q-52 -88 -84 -212q-30 -124 -30 -280zM190 710q0 140 24 248t68 192q24 52 72 100t120 80t172 32q102 0 174 -36q72 -34 118 -86t70 -104q42 -82 66 -194t24 -260q0 -154 -26 -262t-74 -188q-28 -48 -72 -96q-44 -46 -112 -76q-68 -32 -164 -32v2l-6 2q-96 0 -168 32 t-120 80t-72 98q-44 84 -68 200q-26 116 -26 268z" />
<glyph unicode="&#x41f;" horiz-adv-x="1184" d="M186 0h66v1350h680v-1350v2v-2h66v1404h-812v-1404z" />
<glyph unicode="&#x420;" horiz-adv-x="1018" d="M188 0h64v600h244q108 0 190 26q82 24 142 72q58 46 98 122q38 76 40 184q0 106 -44 190t-130 140q-56 36 -130 52t-186 16h-288v-1404v2zM250 652v696h212q104 0 176 -18q72 -16 118 -48q68 -48 104 -120t36 -166q-2 -88 -36 -152t-78 -100q-48 -42 -120 -66t-172 -24 h-240v2v-4z" />
<glyph unicode="&#x421;" horiz-adv-x="1026" d="M118 698q0 -158 36 -294t100 -226q80 -110 180 -154t220 -42v2h2q90 0 176 30q88 28 164 84l-36 44q-66 -52 -142 -80q-74 -28 -154 -28q-116 -2 -212 48q-96 48 -166 166q-44 76 -70 188t-26 250q0 142 26 262q28 120 70 200q58 106 148 162q92 56 208 56q84 0 152 -24 t132 -74l36 44q-70 56 -148 80q-78 26 -170 26q-130 0 -234 -58t-172 -166q-56 -90 -88 -218q-32 -130 -32 -278z" />
<glyph unicode="&#x422;" horiz-adv-x="902" d="M30 1350h400v-1350v2l-2 -2h64v1350h404l8 56h-874v-56z" />
<glyph unicode="&#x423;" horiz-adv-x="916" d="M30 1404l408 -1000l44 2l-30 -92q-28 -88 -60 -144t-78 -88t-118 -46l-40 -8l12 -52l28 4q108 16 168 60q58 44 94 124t72 196l360 1044h-64l-332 -960l-398 960v2l2 -2h-68z" />
<glyph unicode="&#x424;" horiz-adv-x="1368" d="M118 756q0 -146 52 -264q52 -120 168 -192t312 -76v-224h66v224q196 4 312 76t168 192q52 118 52 264t-52 264t-168 188q-116 72 -312 76v206h-66v-206q-196 -4 -312 -76q-116 -70 -168 -188t-52 -264zM192 754q-2 220 106 344t352 130v-956q-240 4 -348 126 q-110 122 -108 352zM716 276v956q244 -6 352 -130t106 -344v2l-2 -6q2 -230 -108 -352q-108 -122 -348 -126z" />
<glyph unicode="&#x425;" horiz-adv-x="986" d="M12 0h76l392 716l420 -716h76l-456 764l364 640h-74l-334 -592l-346 592h-76l384 -644l-426 -762v2z" />
<glyph unicode="&#x426;" horiz-adv-x="1194" d="M186 2h844v-372v2l2 -4h64v430h-98v1348h-66v-1348h-680v1348h-66v-1404z" />
<glyph unicode="&#x427;" horiz-adv-x="1086" d="M120 956q0 -100 28 -168q28 -66 72 -104q46 -40 100 -60q52 -18 100 -22t80 -4q80 0 164 16q82 16 158 48v-668h64v2l6 4v1404h-64v-684q-64 -26 -148 -44t-168 -18q-74 0 -138 16t-108 56q-42 36 -62 94t-20 136v444h-64v-448z" />
<glyph unicode="&#x428;" horiz-adv-x="1702" d="M186 0h1330v1404h-66v-1348v2v-2h-564v1348h-66v-1348h-568v1348h-66v-1404z" />
<glyph unicode="&#x429;" horiz-adv-x="1714" d="M186 2h1364v-372v2l2 -4h64v430h-100v1348h-66v-1348h-564v1348h-66v-1348h-568v1348h-66v-1404z" />
<glyph unicode="&#x42a;" horiz-adv-x="1314" d="M32 1346h420v-1344h344q96 0 176 24t140 72q64 48 100 124t36 184q0 104 -34 180q-36 76 -100 124q-60 44 -140 64q-82 20 -178 20h-280v2v610h-484v-60zM518 60v680h284q84 0 152 -20t118 -62q52 -40 80 -104t28 -152v2v-2q0 -88 -28 -152t-80 -106q-52 -44 -120 -64 t-150 -20h-284z" />
<glyph unicode="&#x42b;" horiz-adv-x="1486" d="M186 2h344q96 0 176 24t140 72q64 48 100 124t36 184q0 104 -34 180q-36 76 -100 124q-60 44 -140 64q-82 20 -178 20h-280v2v610h-64v-1404zM250 60v680h284q84 0 152 -20t118 -62q52 -40 80 -104t28 -152t-28 -152t-80 -106q-52 -44 -120 -64t-150 -20h-284zM1168 0h64 v1404h-64v-1404v2v-2z" />
<glyph unicode="&#x42c;" horiz-adv-x="1048" d="M186 2h344q96 0 176 24t140 72q64 48 100 124t36 184q0 104 -34 180q-36 76 -100 124q-60 44 -140 64q-82 20 -178 20h-280v2v610h-64v-1404zM250 60v680h284q84 0 152 -20t118 -62q52 -40 80 -104t28 -152v2v-2q0 -88 -28 -152t-80 -106q-52 -44 -120 -64t-150 -20h-284 z" />
<glyph unicode="&#x42d;" horiz-adv-x="1060" d="M40 96q76 -56 168 -84q92 -30 184 -30q112 0 212 42q100 40 180 132q80 90 120 226q40 138 40 318q0 220 -68 382q-68 160 -188 248t-284 88q-96 0 -180 -26q-84 -24 -152 -80l30 -48q64 52 140 76t162 24q200 0 320 -156q122 -156 138 -454h-572v-56h576v-24 q0 -152 -28 -264t-76 -188q-68 -102 -166 -148t-208 -46q-80 0 -160 28q-80 26 -150 82l-32 -52v2z" />
<glyph unicode="&#x42e;" horiz-adv-x="1582" d="M186 4l2 -4h64v720h212v-32q0 -148 32 -272t86 -214q32 -56 84 -106q52 -52 124 -84t170 -32q106 0 182 38t128 98t84 124q44 84 68 196q24 114 24 254q0 156 -28 280t-76 212q-28 54 -76 110t-124 92t-184 38q-100 0 -174 -32t-126 -84t-84 -110q-44 -76 -72 -180 t-36 -236h-216v628h-64v-1404zM534 714q0 140 24 248t64 190q24 52 68 100t112 80t160 32q96 0 164 -34t112 -84q44 -52 68 -104q40 -82 60 -196q20 -112 20 -262q0 -170 -30 -286q-28 -118 -84 -198q-44 -64 -116 -112q-72 -46 -186 -48v2l-6 -4q-90 0 -158 32t-112 80 q-46 48 -70 96q-42 82 -66 200q-24 116 -24 268z" />
<glyph unicode="&#x42f;" horiz-adv-x="1132" d="M60 36l16 -56l56 8q58 8 94 26t58 50q24 30 38 74t30 106l48 192q28 112 88 162q60 48 172 48h224v-652h64v1404l-2 6h-278q-124 0 -232 -34t-176 -118t-70 -230q0 -144 72 -236t226 -122q-62 -24 -98 -76t-52 -116l-62 -228q-12 -46 -24 -80t-30 -58t-46 -40t-68 -22z M258 1030q0 120 56 192q54 72 146 102q92 32 204 32h220v-646h-220v2v-8q-114 0 -206 28t-146 100q-54 70 -54 198z" />
<glyph unicode="&#x430;" horiz-adv-x="958" d="M112 266q0 -70 28 -134t98 -104q72 -40 196 -40q88 0 160 36t132 106q8 -56 36 -92t74 -52l-8 -10l32 44q-60 28 -76 88t-12 182l8 406q2 78 -8 138t-38 104q-32 48 -84 72q-54 24 -134 24q-106 0 -198 -36t-172 -98l32 -44q68 56 154 92q84 38 182 38q56 0 96 -16 t64 -44q30 -32 42 -86q12 -52 12 -128l-2 -120q-14 0 -44 2h-62q-156 0 -270 -34t-176 -106t-62 -188zM170 262q0 148 112 216q114 66 322 66h56q30 0 50 -2v-56v-78v-74v-40v-56v-54q-48 -72 -120 -112t-158 -40v2v-4q-100 0 -156 32q-58 32 -82 84t-24 116z" />
<glyph unicode="&#x431;" horiz-adv-x="1050" d="M128 548q0 -148 24 -240q22 -92 66 -156q40 -68 118 -116q76 -48 200 -50v-6q120 2 200 54q80 50 120 122q40 64 60 146q22 82 22 192q0 134 -40 254q-38 120 -122 196t-222 78q-98 0 -170 -38q-70 -36 -118 -94q-46 -56 -70 -116l-4 2q12 150 44 254t100 176 q70 72 194 126l244 110l60 30q32 14 64 34l-32 56q-28 -16 -58 -30t-58 -26l-268 -120q-102 -48 -166 -116t-100 -148q-48 -104 -68 -228t-20 -286v-60zM190 508q0 80 20 160t62 148q40 68 104 108q66 40 158 40q128 -2 200 -70t102 -176q28 -108 28 -228q0 -116 -32 -220 t-104 -172q-72 -66 -196 -68v2h4q-130 2 -206 70t-108 176t-32 230z" />
<glyph unicode="&#x432;" horiz-adv-x="930" d="M172 1016l4 4v-1020h334q80 0 156 28t124 88q48 62 50 164q-2 104 -62 172t-160 84q80 20 126 80q44 60 44 148q-2 112 -82 180q-78 70 -206 72h-328zM240 506h288q116 -2 178 -62t62 -160q0 -106 -68 -170q-68 -62 -192 -62h-264v456zM240 556v412v2v-2h264 q76 0 124 -32q48 -30 70 -78q24 -48 24 -98q0 -90 -52 -146q-54 -56 -158 -58h-272z" />
<glyph unicode="&#x433;" horiz-adv-x="724" d="M176 0h64v968v2v-2h464l6 52h-534v-1020z" />
<glyph unicode="&#x434;" horiz-adv-x="970" d="M34 48v-342h64v292h720v-292h64v342h-96v972h-508l-4 -188q-4 -144 -22 -284q-20 -140 -56 -268t-94 -232h-68zM168 48q60 122 94 256q36 136 52 262t18 222l4 182h388v2v-4v-920h-556z" />
<glyph unicode="&#x435;" horiz-adv-x="946" d="M106 518q0 -156 46 -276t138 -188t232 -68l4 -2q98 0 174 26t136 74l-26 40q-54 -44 -122 -66t-148 -22q-96 0 -164 36t-108 92q-32 44 -56 116q-24 70 -32 162q-2 24 -2 52v36h672v22q0 108 -14 182q-16 72 -40 120q-26 50 -62 86q-38 40 -96 68t-140 28 q-92 -2 -160 -38t-112 -88q-60 -68 -90 -164t-30 -228zM176 580v2l4 -2q6 136 50 228t114 136t150 44q84 0 140 -36q58 -36 90 -92q26 -44 42 -112t16 -168h-606z" />
<glyph unicode="&#x436;" horiz-adv-x="1288" d="M60 34l14 -48l48 4q72 6 102 50t46 132l36 180q12 66 46 108q36 44 100 44h172v-504v2l-12 -2h64v504h172q64 0 100 -42q34 -44 46 -110l36 -180q16 -88 46 -132t102 -50l48 -4l14 48l-36 6q-44 8 -64 32t-32 78l-52 228q-12 56 -40 98t-80 58v6q60 16 86 64 q28 48 40 110l40 168q8 40 24 64q16 26 54 34l52 8l-16 52l-56 -6q-58 -6 -82 -48q-24 -40 -38 -116l-32 -156q-16 -70 -52 -110t-100 -40h-174v480l-64 -12v-468h-174q-64 0 -100 40t-52 110l-32 156q-14 76 -38 116q-24 42 -82 48l-56 6l-16 -52l52 -8q38 -8 54 -34 q16 -24 24 -64l40 -168q12 -62 40 -110q26 -48 86 -64v-6q-52 -16 -80 -58t-40 -98l-52 -228q-12 -54 -32 -78t-64 -32z" />
<glyph unicode="&#x437;" horiz-adv-x="806" d="M48 86q60 -44 138 -72t186 -28q86 0 164 32t126 98q48 68 50 170q-2 116 -62 180t-152 80v6q82 18 134 82t54 160q-2 116 -80 182t-210 66q-88 0 -160 -24t-140 -64l28 -44q60 36 128 60q70 22 148 22q54 0 106 -20t84 -64t34 -116q0 -68 -32 -116q-32 -50 -86 -76 t-118 -26h-106v2l-6 -12v-52h114q110 0 178 -62t70 -174q0 -80 -38 -132q-38 -54 -98 -80t-132 -26q-50 -2 -126 18q-76 18 -168 78z" />
<glyph unicode="&#x438;" horiz-adv-x="1036" d="M176 0h60l492 808q18 28 38 60t32 56v-48v-52v-36v-788h64v1036l-60 -12l-474 -776q-8 -14 -26 -42l-36 -60t-26 -44v46v56v46v784l-64 -12v-1024v2z" />
<glyph unicode="&#x439;" horiz-adv-x="1036" d="M176 0h60l492 808q18 28 38 60t32 56v-48v-52v-36v-788h64v1036l-60 -12l-474 -776q-8 -14 -26 -42l-36 -60t-26 -44v46v56v46v784l-64 -12v-1024v2zM252 1342q40 -70 108 -118q66 -48 162 -50q94 2 162 50t108 120l-48 32v2l-4 -4q-36 -58 -92 -96t-128 -38 q-76 0 -132 40q-56 38 -92 94z" />
<glyph unicode="&#x43a;" horiz-adv-x="906" d="M176 0h64v504h224q66 0 100 -42q34 -44 46 -110l34 -180q16 -88 46 -132t102 -50l48 -4l14 48l-34 6q-44 8 -64 32t-32 78l-52 228q-12 56 -40 98t-80 58v6q60 16 86 64q28 48 40 110l40 168q8 40 24 64q16 26 52 34l52 8l-16 52l-56 -6q-58 -6 -82 -48q-24 -40 -36 -116 l-32 -156q-16 -70 -52 -110t-100 -40h-228v480l-64 -12v-1024v2z" />
<glyph unicode="&#x43b;" horiz-adv-x="962" d="M36 32l14 -52l28 4q36 6 68 18q30 14 54 40q34 38 56 112q20 74 40 214q14 106 24 206t14 176l14 216h376v-968h64v1020h-492v2h-4l-16 -228q-8 -112 -16 -208q-10 -96 -20 -176q-20 -138 -42 -214q-20 -76 -44 -104q-16 -20 -38 -32q-24 -12 -48 -18z" />
<glyph unicode="&#x43c;" horiz-adv-x="1312" d="M160 0h64l64 694q2 24 6 76l8 104t4 76h4q8 -24 24 -76l32 -104t24 -76l232 -694h60l228 694q8 24 24 76l32 104t24 76h4l8 -128l12 -128l64 -694h68l-100 1020h-92l-218 -666q-22 -68 -42 -136q-20 -66 -40 -134h-4q-4 22 -20 66l-28 88t-22 64l-236 712h-92v2l6 4z" />
<glyph unicode="&#x43d;" horiz-adv-x="1012" d="M176 0h64v520h532v-520h64v1036l-64 -12v-454h-532v466l-64 -12v-1024v2v-2z" />
<glyph unicode="&#x43e;" horiz-adv-x="1030" d="M108 500q0 -116 24 -204q24 -90 64 -158q26 -44 70 -82t106 -62t142 -24l2 10q80 0 144 24t108 64t70 86q40 64 60 150q22 84 22 196q0 118 -24 206q-24 90 -66 158q-24 40 -68 78t-108 62q-62 24 -144 24q-78 0 -138 -24q-60 -22 -104 -58t-68 -76q-44 -68 -68 -164 q-24 -94 -24 -206zM180 520q0 100 20 184t52 144q20 36 56 68t88 52t120 20q100 -2 168 -46t100 -102q36 -60 54 -144q20 -82 20 -194q0 -104 -16 -180t-48 -134q-20 -40 -56 -76t-88 -60q-52 -22 -122 -22v2l-12 2q-68 0 -120 22t-90 54q-36 34 -56 70q-30 52 -50 140 t-20 200z" />
<glyph unicode="&#x43f;" horiz-adv-x="1002" d="M176 0h64v968h524v-968h60v1020h-648v-1020v2v-2z" />
<glyph unicode="&#x440;" horiz-adv-x="1024" d="M140 1012q8 -16 16 -58t8 -136v-1242l8 8l60 12v520q52 -64 128 -100t158 -36q100 0 176 44q76 46 132 134q36 58 58 146t22 210q0 134 -28 230t-84 166q-50 62 -118 90t-146 28q-90 0 -168 -40q-80 -40 -136 -114q0 64 -6 100q-8 36 -16 48zM232 182v636q60 80 136 120 t156 40q68 0 128 -28t102 -88q40 -56 62 -146t22 -206q0 -108 -20 -192t-48 -132q-44 -74 -112 -114t-154 -40v2h6q-74 0 -150 36q-74 36 -128 112z" />
<glyph unicode="&#x441;" horiz-adv-x="850" d="M108 500q0 -116 24 -206t66 -154q52 -78 132 -118q78 -40 180 -40v2q88 0 158 30q70 32 130 96l-34 40q-52 -56 -116 -84t-136 -28q-120 2 -194 66t-110 168t-36 224q0 140 28 232t76 148q44 56 104 82q60 28 124 28q68 0 124 -24q54 -24 104 -70l36 40q-48 48 -112 76 t-152 28q-76 0 -140 -28t-120 -84q-64 -64 -100 -164t-36 -260z" />
<glyph unicode="&#x442;" horiz-adv-x="686" d="M10 968h300v-968h64v968v2l2 -2h300l6 52h-672v-52z" />
<glyph unicode="&#x443;" horiz-adv-x="836" d="M26 1012l278 -786q16 -42 30 -90q14 -50 24 -90t14 -52l32 6l-12 -28q-32 -106 -64 -176t-74 -110t-102 -60l18 -44v2h4q76 22 128 74t88 132q36 82 72 190l344 1040h-70l-266 -826l-48 -148h-2q-2 12 -18 68t-40 126l-276 792z" />
<glyph unicode="&#x444;" horiz-adv-x="1476" d="M114 518q0 -162 40 -282t120 -186t200 -66q68 0 128 20t100 58v-468l66 14v456l4 -4q40 -38 100 -58t128 -20q120 0 200 66t120 186t40 282q0 136 -32 254t-108 190q-74 74 -200 76q-68 0 -132 -24t-118 -68v556l-66 -14v-540q-54 44 -118 68t-132 24q-126 -2 -200 -76 q-76 -72 -108 -190t-32 -254zM180 510q0 116 24 224t86 176q62 70 178 72q60 0 124 -28q62 -28 114 -80v-748q-40 -44 -100 -68t-124 -24h2q-108 0 -176 62q-66 60 -96 168q-32 108 -32 246zM768 126v748q52 52 114 80q64 28 124 28q116 -2 178 -72q62 -68 86 -176t24 -224 q0 -138 -32 -246q-30 -108 -96 -168q-68 -62 -176 -62v2l2 -2q-64 0 -124 24t-100 68z" />
<glyph unicode="&#x445;" horiz-adv-x="858" d="M8 0v2l4 -2h74l332 514l340 -514h76l-384 564l296 456h-74l-256 -410l-268 410h-76l308 -456z" />
<glyph unicode="&#x446;" horiz-adv-x="1010" d="M174 2v2l2 -4h682v-292h64v342h-96v988l-64 -12v-976h-524v988l-64 -12v-1024z" />
<glyph unicode="&#x447;" horiz-adv-x="914" d="M106 698q0 -104 44 -166q44 -60 114 -86q70 -28 150 -28q72 0 138 12q64 12 120 34v-468h64v1036l-64 -12v-508q-46 -18 -110 -32t-132 -14t-128 20t-96 68q-38 48 -38 130v352v2l2 -2l-64 -12v-326z" />
<glyph unicode="&#x448;" horiz-adv-x="1498" d="M176 0h1144v1036l-64 -12v-976h-480v988l-64 -12v-976h-476v2l4 -2v988l-64 -12v-1024z" />
<glyph unicode="&#x449;" horiz-adv-x="1506" d="M174 2h1178v-292v2l2 -4h64v342h-96v988l-64 -12v-976h-480v988l-64 -12v-976h-476v988l-64 -12v-1024z" />
<glyph unicode="&#x44a;" horiz-adv-x="1004" d="M4 1020l4 -52h304v-968h244q100 0 188 26t146 90q56 66 58 186q-2 118 -60 182t-146 88t-186 24h-182v426l2 -2h-372zM376 50v492v2h200q140 0 224 -60t86 -184q-2 -128 -86 -190q-84 -60 -224 -60h-200z" />
<glyph unicode="&#x44b;" horiz-adv-x="1196" d="M176 0h244q100 0 188 26t146 90q56 66 58 186q-2 118 -60 182t-146 88t-186 24h-182v444l2 -4l-64 -12v-1024zM240 50v492v2h200q140 0 224 -60t86 -184q-2 -128 -86 -190q-84 -60 -224 -60h-200zM956 0h64v1036l-64 -10v-1024v2v-4z" />
<glyph unicode="&#x44c;" horiz-adv-x="866" d="M176 0h244q100 0 188 26t146 90q56 66 58 186q-2 118 -60 182t-146 88t-186 24h-182v444l2 -4l-64 -12v-1024zM240 50v492v2h200q140 0 224 -60t86 -184q-2 -128 -86 -190q-84 -60 -224 -60h-200z" />
<glyph unicode="&#x44d;" horiz-adv-x="874" d="M62 108q64 -68 136 -100q74 -32 166 -32v2l-2 6q102 0 180 40q80 40 132 118q42 64 66 154t24 206q0 160 -36 260t-100 164q-56 56 -120 84t-140 28q-94 0 -160 -30q-66 -32 -114 -80l36 -42q52 48 108 72q58 24 130 24q64 0 124 -28t104 -84q40 -48 68 -120 q28 -74 36 -180h-416v-56h420v-24q0 -120 -36 -224t-110 -168t-194 -66q-76 0 -144 28t-122 88z" />
<glyph unicode="&#x44e;" horiz-adv-x="1278" d="M170 2h64v520h146v-16q0 -110 20 -194t56 -148q40 -74 118 -126t194 -54l8 -4q116 2 194 54t118 124q36 64 56 148t20 196q0 120 -20 212t-58 158q-36 66 -114 114t-200 52q-124 -4 -202 -52t-114 -114q-34 -56 -54 -132q-18 -74 -22 -168h-146v466l-64 -12v-1024z M456 502q0 110 18 194q16 84 48 144q30 60 94 104t160 46q96 -2 160 -46t94 -104q32 -60 48 -144q18 -84 18 -194q0 -100 -16 -172t-46 -136q-28 -62 -92 -110t-164 -50v2l-2 -2q-102 2 -166 50t-92 110q-30 64 -46 136t-16 172z" />
<glyph unicode="&#x44f;" horiz-adv-x="936" d="M40 36l12 -48l36 4q52 4 80 24t48 60t40 106l44 144q20 68 58 112q36 44 104 46h228v-476h64v1020l2 -8h-306q-148 -2 -234 -74t-88 -192q2 -112 68 -180q64 -68 172 -72v-4q-32 -8 -54 -32t-38 -56t-26 -60l-64 -178q-22 -60 -46 -90t-72 -40zM196 748q0 104 68 162 q68 56 186 56h240v-440v2h2h-250q-118 2 -182 62t-64 158z" />
<glyph unicode="&#x450;" horiz-adv-x="946" d="M106 518q0 -156 46 -276t138 -188t232 -68l4 -2q98 0 174 26t136 74l-26 40q-54 -44 -122 -66t-148 -22q-96 0 -164 36t-108 92q-32 44 -56 116q-24 70 -32 162q-2 24 -2 52v36h672v22q0 108 -14 182q-16 72 -40 120q-26 50 -62 86q-38 40 -96 68t-140 28 q-92 -2 -160 -38t-112 -88q-60 -68 -90 -164t-30 -228zM176 580h4q6 136 50 228t114 136t150 44q84 0 140 -36q58 -36 90 -92q26 -44 42 -112t16 -168h-606zM304 1374l350 -204v2l2 -4l20 40l-336 226z" />
<glyph unicode="&#x451;" horiz-adv-x="946" d="M106 518q0 -156 46 -276t138 -188t232 -68l4 -2q98 0 174 26t136 74l-26 40q-54 -44 -122 -66t-148 -22q-96 0 -164 36t-108 92q-32 44 -56 116q-24 70 -32 162q-2 24 -2 52v36h672v22q0 108 -14 182q-16 72 -40 120q-26 50 -62 86q-38 40 -96 68t-140 28 q-92 -2 -160 -38t-112 -88q-60 -68 -90 -164t-30 -228zM176 580h4q6 136 50 228t114 136t150 44q84 0 140 -36q58 -36 90 -92q26 -44 42 -112t16 -168h-606zM312 1258q0 -24 14 -36q14 -14 34 -14v2v-2q20 0 34 14q14 12 14 36q0 20 -12 34q-14 14 -36 14q-20 0 -34 -14 t-14 -34zM594 1258q0 -24 16 -36q14 -14 34 -14t34 14q14 12 14 36q0 20 -14 34t-34 14t-34 -14q-16 -14 -16 -34z" />
<glyph unicode="&#x452;" horiz-adv-x="1004" d="M40 1182v2l4 8h132v-1192h60v800q72 90 156 134t164 44q54 0 94 -16t64 -40q26 -30 42 -74t16 -98v-784q0 -84 -10 -146t-42 -106t-100 -72l32 -40q44 16 84 48t66 86q20 40 28 100q6 60 6 128v800q0 56 -14 98q-14 44 -36 76q-26 40 -78 68t-128 28q-100 0 -188 -48 t-156 -124v36v64v226h360l22 56h-384v20q0 108 -8 160t-16 64l-62 -12q8 -16 16 -66t8 -144v-28h-132v-56z" />
<glyph unicode="&#x453;" horiz-adv-x="724" d="M176 0h64v968h464l6 52h-534v-1020zM282 1190l22 -40v2l350 204l-36 60z" />
<glyph unicode="&#x454;" horiz-adv-x="874" d="M110 510q0 -116 24 -206t66 -154q52 -78 132 -118q78 -40 180 -40v2l-2 -10q92 0 166 32q72 32 136 100l-36 40q-54 -60 -122 -88t-144 -28q-120 2 -194 66t-110 168t-36 224v24h420v56h-416q8 106 36 180q28 72 68 120q44 56 104 84t124 28q72 0 130 -24q56 -24 108 -72 l36 42q-48 48 -114 80q-66 30 -160 30q-76 0 -140 -28t-120 -84q-64 -64 -100 -164t-36 -260z" />
<glyph unicode="&#x455;" horiz-adv-x="806" d="M62 68q64 -44 148 -68q86 -24 182 -24v2v2q160 2 248 82q88 82 88 216q2 96 -56 164q-56 68 -192 96l-130 26q-92 18 -140 66t-48 140t60 152q62 60 190 62q72 0 134 -20q64 -20 112 -56l28 48q-52 38 -120 58t-152 20q-104 0 -174 -36t-106 -96q-36 -62 -36 -138 q0 -112 64 -176q62 -62 174 -86l124 -24q116 -24 164 -80q48 -58 46 -136q0 -104 -70 -170q-70 -64 -198 -66q-92 0 -172 24t-140 66z" />
<glyph unicode="&#x456;" horiz-adv-x="416" d="M150 1348q0 -24 16 -40q16 -14 40 -14h2q22 0 38 14q16 16 16 40t-16 40t-40 16t-40 -16t-16 -40zM176 0h64v1036l-64 -10v-1024v2v-4z" />
<glyph unicode="&#x457;" horiz-adv-x="416" d="M28 1256q0 -22 14 -34q14 -14 34 -14h-2q20 0 34 14q14 12 14 34q0 20 -12 34t-34 14q-20 0 -34 -14t-14 -34zM176 0h64v1036l-64 -10v-1024v2v-4zM292 1256q0 -22 14 -34q14 -14 34 -14t34 14q14 12 14 34q0 20 -14 34t-34 14t-34 -14t-14 -34z" />
<glyph unicode="&#x458;" horiz-adv-x="416" d="M26 -350l30 -40v2v-8q44 16 84 48t66 86q20 40 28 100q6 60 6 128v1072l-64 -12v-1052q0 -84 -8 -146q-10 -62 -42 -106t-100 -72zM154 1348q0 -24 16 -40q16 -14 36 -14q24 0 40 14q16 16 16 40t-16 40t-40 16q-20 0 -36 -16t-16 -40z" />
<glyph unicode="&#x459;" horiz-adv-x="1402" d="M38 32l16 -52l26 4q36 6 66 18q30 14 54 40q34 36 56 110q20 74 40 214q14 106 24 206t14 176l14 216h368v-968h244q100 0 188 26t146 90q56 66 58 186q-2 118 -60 182t-146 88t-186 24h-182v426l-2 2h-484l-16 -228q-8 -112 -16 -208t-20 -176q-20 -138 -40 -214 q-22 -76 -46 -104q-16 -20 -38 -32t-46 -18zM776 50v492v2h200q140 0 224 -60t86 -184q-2 -128 -86 -190q-84 -60 -224 -60h-200z" />
<glyph unicode="&#x45a;" horiz-adv-x="1462" d="M176 0h64v544h532v-544h244q100 0 188 26t146 90q56 66 58 186q-2 118 -60 182t-146 88t-186 24h-182v444l2 -4l-64 -12v-432h-532v444l-64 -12v-1024zM836 50v492v2h200q140 0 224 -60t86 -184q-2 -128 -86 -190q-84 -60 -224 -60h-200z" />
<glyph unicode="&#x45b;" horiz-adv-x="1004" d="M36 1176v2l8 14h132v-1192h60v800q72 90 156 134t164 44q54 0 94 -16t64 -40q26 -30 42 -74t16 -98v-756h60v764q0 56 -14 98q-14 44 -36 76q-26 40 -78 68t-128 28q-100 0 -188 -48t-156 -124v36v64v226h360l22 56h-384v20q0 108 -8 160t-16 64l-62 -12q8 -16 16 -66 t8 -144v-28h-132v-56z" />
<glyph unicode="&#x45c;" horiz-adv-x="906" d="M176 0h64v504h224q66 0 100 -42q34 -44 46 -110l34 -180q16 -88 46 -132t102 -50l48 -4l14 48l-34 6q-44 8 -64 32t-32 78l-52 228q-12 56 -40 98t-80 58v6q60 16 86 64q28 48 40 110l40 168q8 40 24 64q16 26 52 34l52 8l-16 52l-56 -6q-58 -6 -82 -48q-24 -40 -36 -116 l-32 -156q-16 -70 -52 -110t-100 -40h-228v480l-64 -12v-1024zM330 1206l22 -40v2l350 204l-34 60z" />
<glyph unicode="&#x45d;" horiz-adv-x="1036" d="M176 0h60l492 808q18 28 38 60t32 56v-48v-52v-36v-788h64v1036l-60 -12l-474 -776q-8 -14 -26 -42l-36 -60t-26 -44v46v56v46v784l-64 -12v-1024v2zM314 1374l352 -204v2v-4l20 40l-336 226z" />
<glyph unicode="&#x45e;" horiz-adv-x="836" d="M26 1012l278 -786q16 -42 30 -90q14 -50 24 -90t14 -52l32 6l-12 -28q-32 -106 -64 -176t-74 -110t-102 -60l18 -44l4 2q76 22 128 74t88 132q36 82 72 190l344 1040h-70l-266 -826l-48 -148h-2q-2 12 -18 68t-40 126l-276 792zM146 1342q40 -70 106 -118t162 -50 q94 2 162 50t108 120l-48 32v2v-4q-36 -58 -92 -96t-128 -38q-76 0 -132 40q-56 38 -92 94z" />
<glyph unicode="&#x45f;" horiz-adv-x="1002" d="M172 0v2l4 -2h292v-292h64v292h292v1036l-64 -12v-976h-524v988l-64 -12v-1024z" />
<glyph unicode="&#x460;" d="M0 0v2v-2z" />
<glyph unicode="&#x461;" d="M0 0v2v-2z" />
<glyph unicode="&#x462;" horiz-adv-x="1060" d="M34 1120l2 4h162v-1124h344q94 0 174 24t140 72q64 48 100 124t36 184q0 104 -34 180q-36 76 -100 124q-60 44 -142 64q-80 20 -176 20h-280v328h276v60h-276v224h-64v-224h-162v-60zM264 60v680h284q84 0 152 -20t118 -62q52 -40 80 -104t28 -152v2v-2q0 -88 -28 -152 t-80 -106q-52 -44 -120 -64t-150 -20h-284z" />
<glyph unicode="&#x463;" horiz-adv-x="890" d="M40 824h148v-824h244q100 0 188 26t146 90q56 66 58 186q-2 118 -60 182t-146 88t-186 24h-182v228h238v56h-238v156h2l-64 -12v-144h-148v-56zM252 50v492v2h200q140 0 224 -60t86 -184q-2 -128 -86 -190q-84 -60 -224 -60h-200z" />
<glyph unicode="&#x464;" d="M0 0v2v-2z" />
<glyph unicode="&#x465;" d="M0 0v2v-2z" />
<glyph unicode="&#x466;" d="M0 0v2v-2z" />
<glyph unicode="&#x467;" d="M0 0v2v-2z" />
<glyph unicode="&#x468;" d="M0 0v2v-2z" />
<glyph unicode="&#x469;" d="M0 0v2v-2z" />
<glyph unicode="&#x46a;" d="M0 0v2v-2z" />
<glyph unicode="&#x46b;" d="M0 0v2v-2z" />
<glyph unicode="&#x46c;" d="M0 0v2v-2z" />
<glyph unicode="&#x46d;" d="M0 0v2v-2z" />
<glyph unicode="&#x46e;" d="M0 0v2v-2z" />
<glyph unicode="&#x46f;" d="M0 0v2v-2z" />
<glyph unicode="&#x470;" d="M0 0v2v-2z" />
<glyph unicode="&#x471;" d="M0 0v2v-2z" />
<glyph unicode="&#x472;" horiz-adv-x="1284" d="M132 696q0 -156 32 -282q32 -124 88 -212q32 -54 86 -106q52 -52 128 -84q78 -34 184 -34l-6 2q102 0 176 32t126 80t88 100q64 88 100 212q34 124 34 286q0 156 -28 278q-28 120 -78 208q-28 54 -80 110t-132 94q-82 36 -198 38q-108 0 -188 -34q-78 -34 -132 -86 t-86 -112q-52 -86 -84 -210q-30 -124 -30 -280zM188 686h902v-2q0 -154 -26 -262t-74 -188q-28 -48 -72 -96q-44 -46 -112 -76q-68 -32 -164 -32l2 2q-96 0 -168 32t-120 80t-72 98q-44 80 -70 190q-24 110 -26 254zM194 736q2 128 26 230q24 100 66 180v2l-6 6 q24 52 72 100t120 80t172 32q102 0 174 -36q72 -34 118 -86t70 -104q36 -76 60 -176t28 -228h-900z" />
<glyph unicode="&#x473;" horiz-adv-x="1030" d="M108 498q0 -116 24 -206t64 -158q26 -44 70 -82t106 -62t142 -24l2 14q80 0 144 24t108 64t70 86q40 64 60 150q22 84 22 196q0 118 -24 206t-66 156q-24 40 -68 78t-108 62q-62 24 -144 24q-78 0 -138 -24q-60 -22 -104 -58t-68 -76q-44 -68 -68 -164q-24 -94 -24 -206z M176 556q4 88 24 160t50 126v2h-2q20 36 56 68t88 52t120 20q100 -2 168 -46t100 -102q30 -52 48 -120q16 -70 20 -160h-672zM178 508h674v-6q0 -104 -16 -180t-48 -134q-20 -40 -56 -76t-88 -58q-52 -24 -122 -24l-6 4q-68 0 -120 22t-90 54q-36 34 -56 70q-30 50 -50 134 t-22 194z" />
<glyph unicode="&#x474;" horiz-adv-x="1038" d="M22 1412l472 -1404h64l354 1044v2v-10q30 88 66 156q34 68 82 112q50 44 126 64l-20 52q-88 -20 -144 -66q-56 -44 -96 -118q-38 -74 -74 -182l-264 -780q-16 -44 -28 -88q-14 -42 -22 -74q-8 -30 -10 -38l-32 104l-32 104l-372 1122h-70z" />
<glyph unicode="&#x475;" horiz-adv-x="806" d="M26 1012l360 -1026h64l254 704q26 76 54 134q28 60 70 100q44 40 112 60l-20 52q-76 -20 -126 -62t-84 -106q-36 -64 -64 -148l-200 -568v2l6 -2q-10 -28 -18 -52t-10 -32h-2q-6 20 -14 42q-6 20 -14 42l-304 876z" />
<glyph unicode="&#x476;" d="M0 0v2v-2z" />
<glyph unicode="&#x477;" d="M0 0v2v-2z" />
<glyph unicode="&#x478;" d="M0 0v2v-2z" />
<glyph unicode="&#x479;" d="M0 0v2v-2z" />
<glyph unicode="&#x47a;" d="M0 0v2v-2z" />
<glyph unicode="&#x47b;" d="M0 0v2v-2z" />
<glyph unicode="&#x47c;" d="M0 0v2v-2z" />
<glyph unicode="&#x47d;" d="M0 0v2v-2z" />
<glyph unicode="&#x47e;" d="M0 0v2v-2z" />
<glyph unicode="&#x47f;" d="M0 0v2v-2z" />
<glyph unicode="&#x480;" d="M0 0v2v-2z" />
<glyph unicode="&#x481;" d="M0 0v2v-2z" />
<glyph unicode="&#x482;" d="M0 0v2v-2z" />
<glyph unicode="&#x483;" d="M0 0v2v-2z" />
<glyph unicode="&#x484;" d="M0 0v2v-2z" />
<glyph unicode="&#x485;" d="M0 0v2v-2z" />
<glyph unicode="&#x486;" d="M0 0v2v-2z" />
<glyph unicode="&#x487;" d="M0 0v2v-2z" />
<glyph unicode="&#x488;" d="M0 0v2v-2z" />
<glyph unicode="&#x489;" d="M0 0v2v-2z" />
<glyph unicode="&#x48a;" d="M0 0v2v-2z" />
<glyph unicode="&#x48b;" d="M0 0v2v-2z" />
<glyph unicode="&#x48c;" d="M0 0v2v-2z" />
<glyph unicode="&#x48d;" d="M0 0v2v-2z" />
<glyph unicode="&#x48e;" d="M0 0v2v-2z" />
<glyph unicode="&#x48f;" d="M0 0v2v-2z" />
<glyph unicode="&#x490;" horiz-adv-x="882" d="M186 2v2l2 -4h60v1350h596v272h-60v-216h-598v-1404z" />
<glyph unicode="&#x491;" horiz-adv-x="724" d="M176 0h64v968v2v-2h472v254l-64 -10v-192h-472v-1020z" />
<glyph unicode="&#x492;" horiz-adv-x="928" d="M38 740h194v-740h60v740h278v56h-278v556h590l6 56h-656v-612h-194v-56v2v-2z" />
<glyph unicode="&#x493;" horiz-adv-x="758" d="M60 504h148v-506h64v506h212l22 52h-232v412v2l-2 -2h464l6 52h-534v-464h-148v-52z" />
<glyph unicode="&#x494;" d="M0 0v2v-2z" />
<glyph unicode="&#x495;" d="M0 0v2v-2z" />
<glyph unicode="&#x496;" horiz-adv-x="1692" d="M74 42l16 -52l56 8q78 10 118 38q40 30 60 82q20 54 38 136l56 228q14 62 34 118t60 90q40 36 114 36h204v-720h66v720h204q74 0 114 -36q40 -34 60 -90t34 -118l56 -228q24 -104 52 -158q26 -56 66 -76t108 -20v-372v2l-18 -2h66v430h-54q-42 0 -70 16t-48 58t-40 122 l-78 282q-16 68 -48 128t-96 84v4q52 20 82 56q28 36 44 80t26 84l52 204q16 58 30 96t42 62q28 22 80 34l56 12l-16 48l-60 -8q-60 -8 -96 -34q-36 -24 -56 -68t-32 -104l-44 -204q-12 -60 -32 -112t-60 -84t-114 -32h-216v628h-66v-628h-216q-74 0 -114 32t-60 84t-32 112 l-44 204q-12 62 -32 104q-20 44 -56 70q-36 24 -96 32l-60 8l-16 -48l56 -12q52 -12 80 -34q28 -24 42 -62t30 -96l52 -204q10 -40 26 -84t44 -80q30 -36 82 -56v-4q-64 -24 -96 -84t-48 -128l-78 -282q-16 -60 -32 -100q-16 -42 -46 -68q-30 -24 -88 -36z" />
<glyph unicode="&#x497;" horiz-adv-x="1288" d="M58 36l14 -48l48 4q72 6 102 50t46 132l36 180q12 66 46 108q36 44 100 44h172v-504h64v504h172q66 0 100 -44q34 -42 46 -108l36 -180q14 -88 46 -130q30 -40 100 -40v-292v2l-12 -6h64v342h-32q-36 0 -60 24q-24 22 -38 78l-52 228q-12 56 -40 98t-80 58v6q60 16 86 64 q28 48 40 110l40 168q8 40 24 64q16 26 52 34l52 8l-16 52l-56 -6q-60 -6 -84 -48q-24 -40 -36 -116l-32 -156q-16 -70 -52 -110t-100 -40h-174v480l-64 -12v-468h-174q-64 0 -100 40t-52 110l-32 156q-14 76 -38 116q-24 42 -82 48l-56 6l-16 -52l52 -8q38 -8 54 -34 q16 -24 24 -64l40 -168q12 -62 40 -110q26 -48 86 -64v-6q-52 -16 -80 -58t-40 -98l-52 -228q-12 -54 -32 -78t-64 -32z" />
<glyph unicode="&#x498;" d="M0 0v2v-2z" />
<glyph unicode="&#x499;" d="M0 0v2v-2z" />
<glyph unicode="&#x49a;" horiz-adv-x="1100" d="M198 6h66v720h236q76 0 116 -36q40 -34 60 -90t32 -118l56 -228q24 -104 52 -158q26 -56 66 -76t108 -20v-372v2l-10 -2h66v430h-54q-42 0 -70 16t-48 58t-40 122l-78 282q-16 68 -48 128t-96 84v4q52 20 82 56q28 36 44 80t26 84l52 204q16 58 30 96t42 62q28 22 80 34 l56 12l-16 48l-60 -8q-60 -8 -96 -34q-36 -24 -56 -68t-32 -104l-44 -204q-12 -60 -32 -112t-60 -84t-114 -32h-250v628h-66v-1404z" />
<glyph unicode="&#x49b;" horiz-adv-x="906" d="M178 10h64v504h226q64 0 100 -44q34 -42 46 -108l36 -180q16 -88 46 -130q32 -40 102 -40v-292v2l-6 -14h64v342h-32q-36 0 -60 24q-24 22 -38 78l-52 228q-12 56 -40 98t-80 58v6q60 16 86 64q28 48 40 110l40 168q8 40 24 64q16 26 52 34l52 8l-16 52l-56 -6 q-60 -6 -84 -48q-24 -40 -38 -116l-32 -156q-16 -70 -52 -110t-100 -40h-228v480l-64 -12v-1024z" />
<glyph unicode="&#x49c;" horiz-adv-x="1106" d="M196 0h66v720h184v-308h64v308q72 -4 112 -40t60 -90t34 -114l56 -228q18 -82 38 -134q20 -54 60 -82q40 -30 118 -40l56 -8l16 52l-48 8q-58 12 -88 36q-30 26 -46 68q-16 40 -32 100l-78 282q-16 68 -48 128t-96 84v4q50 20 80 56t46 80t24 84l52 204q16 58 30 96 t42 62q28 22 80 34l56 12l-16 48v2l-8 -2l-60 -8q-60 -8 -96 -34q-36 -24 -56 -68t-34 -104l-44 -204q-12 -60 -32 -112t-60 -84t-114 -32h-4v284h-64v-284h-184v628h-66v-1404z" />
<glyph unicode="&#x49d;" horiz-adv-x="906" d="M176 0h64v504h148v-248h60v248h18q66 0 100 -42q34 -44 46 -110l36 -180q14 -88 44 -132t102 -50l48 -4l14 48l-34 6q-44 8 -64 32t-32 78l-52 228q-12 56 -40 98t-80 58v6q60 16 88 64q26 48 38 110l40 168q8 40 24 64q16 26 52 34l52 8l-16 52l-56 -6q-60 -6 -84 -48 q-24 -40 -36 -116l-32 -156q-16 -70 -50 -110q-36 -40 -102 -40h-20v248h-60v-248h-148v480l-64 -12v-1024v2z" />
<glyph unicode="&#x49e;" d="M0 0v2v-2z" />
<glyph unicode="&#x49f;" d="M0 0v2v-2z" />
<glyph unicode="&#x4a0;" d="M0 0v2v-2z" />
<glyph unicode="&#x4a1;" d="M0 0v2v-2z" />
<glyph unicode="&#x4a2;" horiz-adv-x="1214" d="M184 2h64v720h696v-720h104v-372v2l2 -4h64v430h-106v1348h-64v-628h-696v628h-64v-1404z" />
<glyph unicode="&#x4a3;" horiz-adv-x="1024" d="M176 2h64v520h532v-520h100v-292v2v-4h64v342h-100v988l-64 -12v-454h-532v466l-64 -12v-1024z" />
<glyph unicode="&#x4a4;" d="M0 0v2v-2z" />
<glyph unicode="&#x4a5;" d="M0 0v2v-2z" />
<glyph unicode="&#x4a6;" d="M0 0v2v-2z" />
<glyph unicode="&#x4a7;" d="M0 0v2v-2z" />
<glyph unicode="&#x4a8;" d="M0 0v2v-2z" />
<glyph unicode="&#x4a9;" d="M0 0v2v-2z" />
<glyph unicode="&#x4aa;" d="M0 0v2v-2z" />
<glyph unicode="&#x4ab;" d="M0 0v2v-2z" />
<glyph unicode="&#x4ac;" d="M0 0v2v-2z" />
<glyph unicode="&#x4ad;" d="M0 0v2v-2z" />
<glyph unicode="&#x4ae;" horiz-adv-x="954" d="M-8 1406l452 -848v-556v2l-2 -4h66v556l456 850h-72l-364 -680l-32 -64t-20 -42q-4 10 -20 42l-32 64l-356 680h-76z" />
<glyph unicode="&#x4af;" horiz-adv-x="818" d="M30 1012l338 -1014v-426l66 14v412l352 1020h-74l-240 -724q-16 -44 -32 -96t-30 -104h-6q-12 48 -24 84q-12 38 -24 78l-256 780v2l-6 -2z" />
<glyph unicode="&#x4b0;" horiz-adv-x="954" d="M-10 1404l432 -812h-272v-60v2l-2 -2h292v-532h66v532h300v60h-280l436 812h-72l-364 -680l-32 -64t-20 -42q-4 10 -20 42l-32 64l-356 680h-76z" />
<glyph unicode="&#x4b1;" horiz-adv-x="818" d="M30 1012l320 -960h-250v-52h268v-426l66 14v412h260l22 52h-264l334 968h-74l-240 -724q-16 -44 -32 -96t-30 -104h-6q-12 48 -24 84t-24 76l-256 780v2l-6 -2z" />
<glyph unicode="&#x4b2;" horiz-adv-x="1002" d="M12 0h76l392 716l420 -716h28v-372v2v-2h64v430h-52l-420 708l364 640h-74l-334 -592l-346 592h-76l384 -644z" />
<glyph unicode="&#x4b3;" horiz-adv-x="866" d="M8 0h74l332 514l340 -514h28v-292v2l4 -2h64v342h-52l-348 514l296 456h-74l-256 -410l-268 410h-76l308 -456z" />
<glyph unicode="&#x4b4;" d="M0 0v2v-2z" />
<glyph unicode="&#x4b5;" d="M0 0v2v-2z" />
<glyph unicode="&#x4b6;" horiz-adv-x="1088" d="M118 958q0 -100 28 -168q28 -66 72 -104q46 -40 100 -60q52 -18 100 -22t80 -4q80 0 164 16q82 16 158 48v-668h96v-372v2l8 2h64v430h-98v1348h-64v-684q-64 -26 -148 -44t-168 -18q-74 0 -138 16t-108 56q-42 36 -62 94t-20 136v444h-64v-448z" />
<glyph unicode="&#x4b7;" horiz-adv-x="922" d="M106 704q0 -104 44 -166q44 -60 114 -86q70 -28 150 -28q72 0 138 12q64 12 120 34v-468h96v-292v2l2 -4h64v342h-96v988l-64 -12v-508q-46 -18 -110 -32t-132 -14t-128 20t-96 68q-38 48 -38 130v352l-64 -12v-326z" />
<glyph unicode="&#x4b8;" horiz-adv-x="1086" d="M126 958q0 -100 28 -168q28 -66 72 -104q60 -52 130 -68t122 -16v-288h68v288q70 4 142 20t140 44v-668h64v2v1404h-64v-684q-56 -24 -128 -40q-74 -16 -150 -20v300h-68v-300q-64 4 -118 20q-56 16 -92 52q-42 36 -62 94t-20 136v444h-64v-448z" />
<glyph unicode="&#x4b9;" horiz-adv-x="914" d="M106 698q0 -100 40 -160t104 -88t140 -32v-242h66v242q60 4 114 16t100 32v-468h64v1036l-64 -12v-508q-40 -16 -96 -30q-56 -12 -116 -16v256h-66v-256q-60 4 -112 26t-84 66q-32 46 -32 122v352v2h6l-64 -12v-326z" />
<glyph unicode="&#x4ba;" horiz-adv-x="1078" d="M186 1410v2l2 -8v-1404h64v688q64 26 146 44t166 18q74 0 138 -16q62 -16 106 -54q44 -40 68 -100t24 -140v-444h64v448q0 100 -28 168q-28 66 -72 104q-48 42 -104 62t-108 24t-84 4q-80 0 -160 -16q-82 -16 -158 -48v668h-64z" />
<glyph unicode="&#x4bb;" horiz-adv-x="1004" d="M146 1472q8 -16 16 -66q8 -48 8 -142v-1276v2l6 10h60v800q72 90 156 134t164 44q54 0 94 -16t64 -40q26 -30 42 -74t16 -98v-756h60v764q0 56 -14 98q-14 44 -36 76q-26 40 -78 68t-128 28q-100 0 -188 -48t-156 -124v36v64v304q0 108 -8 160t-16 64z" />
<glyph unicode="&#x4bc;" d="M0 0v2v-2z" />
<glyph unicode="&#x4bd;" d="M0 0v2v-2z" />
<glyph unicode="&#x4be;" d="M0 0v2v-2z" />
<glyph unicode="&#x4bf;" d="M0 0v2v-2z" />
<glyph unicode="&#x4c0;" horiz-adv-x="436" d="M188 0h64v1404h-64v-1404v2v-2z" />
<glyph unicode="&#x4c1;" d="M0 0v2v-2z" />
<glyph unicode="&#x4c2;" d="M0 0v2v-2z" />
<glyph unicode="&#x4c3;" d="M0 0v2v-2z" />
<glyph unicode="&#x4c4;" d="M0 0v2v-2z" />
<glyph unicode="&#x4c5;" d="M0 0v2v-2z" />
<glyph unicode="&#x4c6;" d="M0 0v2v-2z" />
<glyph unicode="&#x4c7;" d="M0 0v2v-2z" />
<glyph unicode="&#x4c8;" d="M0 0v2v-2z" />
<glyph unicode="&#x4c9;" d="M0 0v2v-2z" />
<glyph unicode="&#x4ca;" d="M0 0v2v-2z" />
<glyph unicode="&#x4cb;" d="M0 0v2v-2z" />
<glyph unicode="&#x4cc;" d="M0 0v2v-2z" />
<glyph unicode="&#x4cd;" d="M0 0v2v-2z" />
<glyph unicode="&#x4ce;" d="M0 0v2v-2z" />
<glyph unicode="&#x2000;" horiz-adv-x="892" />
<glyph unicode="&#x2001;" horiz-adv-x="1784" />
<glyph unicode="&#x2002;" horiz-adv-x="892" />
<glyph unicode="&#x2003;" horiz-adv-x="1784" />
<glyph unicode="&#x2004;" horiz-adv-x="594" />
<glyph unicode="&#x2005;" horiz-adv-x="446" />
<glyph unicode="&#x2006;" horiz-adv-x="297" />
<glyph unicode="&#x2007;" horiz-adv-x="297" />
<glyph unicode="&#x2008;" horiz-adv-x="223" />
<glyph unicode="&#x2009;" horiz-adv-x="356" />
<glyph unicode="&#x200a;" horiz-adv-x="99" />
<glyph unicode="&#x2010;" horiz-adv-x="612" d="M112 536h392v60h-392v-60v2v-2z" />
<glyph unicode="&#x2011;" horiz-adv-x="612" d="M112 536h392v60h-392v-60v2v-2z" />
<glyph unicode="&#x2012;" horiz-adv-x="612" d="M112 536h392v60h-392v-60v2v-2z" />
<glyph unicode="&#x2013;" horiz-adv-x="1198" d="M102 548h994v48h-994v-48v2v-2z" />
<glyph unicode="&#x2014;" horiz-adv-x="1662" d="M102 548h1460v48h-1460v-48v2v-2z" />
<glyph unicode="&#x2018;" horiz-adv-x="332" d="M90 1226q0 -44 20 -70t52 -26v2l10 4q24 0 40 16t16 42q0 24 -16 40t-36 16h-8h-6q0 40 20 78q20 36 64 68l-24 36q-28 -20 -52 -44t-40 -48q-18 -28 -30 -56q-10 -30 -10 -58z" />
<glyph unicode="&#x2019;" horiz-adv-x="332" d="M90 1164l24 -36v2l-10 -4q28 16 52 40t40 48q18 30 30 58q10 30 10 56q0 46 -20 72t-52 26q-24 0 -40 -16t-16 -44q0 -24 16 -40t36 -16h8h6q0 -40 -20 -78q-20 -36 -64 -68z" />
<glyph unicode="&#x201a;" horiz-adv-x="332" d="M90 -160l24 -36v2l-10 -2q28 18 52 42t40 46q18 28 30 58q10 28 10 56q0 44 -20 70t-52 26q-24 0 -40 -16t-16 -44q0 -24 16 -40t36 -16h8h6q0 -40 -20 -78q-20 -36 -64 -68z" />
<glyph unicode="&#x201c;" horiz-adv-x="570" d="M90 1226q0 -44 20 -70t52 -26v2l10 4q24 0 40 16t16 42q0 24 -16 40t-36 16h-8h-6q0 40 20 78q20 36 64 68l-24 36q-28 -20 -52 -44t-40 -48q-18 -28 -30 -56q-10 -30 -10 -58zM328 1226q0 -44 20 -70t54 -26l10 6q24 0 40 16t16 42q0 24 -16 40t-36 16h-10h-8 q0 40 20 78q20 36 66 68l-28 36q-28 -20 -52 -44t-40 -48q-18 -28 -28 -56q-8 -30 -8 -58z" />
<glyph unicode="&#x201d;" horiz-adv-x="570" d="M90 1164l24 -36v2l-10 -4q28 16 52 40t40 48q18 30 30 58q10 30 10 56q0 46 -20 72t-52 26q-24 0 -40 -16t-16 -44q0 -24 16 -40t36 -16h8h6q0 -40 -20 -78q-20 -36 -64 -68zM324 1164l28 -36l-8 -2q28 16 52 40t40 48q18 30 28 58q8 30 8 56q0 46 -20 72t-54 26 q-24 0 -40 -16t-16 -44q0 -24 14 -40q16 -16 36 -16h10h8q0 -40 -22 -78q-20 -36 -64 -68z" />
<glyph unicode="&#x201e;" horiz-adv-x="572" d="M90 -160l24 -36v2l-10 -2q28 18 52 42t40 46q18 28 30 58q10 28 10 56q0 44 -20 70t-52 26q-24 0 -40 -16t-16 -44q0 -24 16 -40t36 -16h8h6q0 -40 -20 -78q-20 -36 -64 -68zM324 -160l24 -36h-4q28 18 52 42t40 46q18 28 28 58q8 28 8 56q0 44 -20 70t-54 26 q-24 0 -40 -16t-16 -44q0 -24 16 -40q14 -16 36 -16h8h6q0 -40 -20 -78q-20 -36 -64 -68z" />
<glyph unicode="&#x2022;" horiz-adv-x="688" d="M130 694q2 -92 62 -152t152 -62v2v-2q92 2 152 62t62 152q-2 92 -62 152t-152 62q-92 -2 -152 -62t-62 -152z" />
<glyph unicode="&#x2026;" horiz-adv-x="956" d="M116 42q0 -26 16 -42t40 -16v2l-2 -2q24 0 40 16q18 16 18 42q0 24 -16 40t-40 16t-40 -16t-16 -40zM424 42q0 -26 16 -42t40 -16t40 16t16 42q0 24 -16 40t-40 16t-40 -16t-16 -40zM728 42q0 -26 16 -42t40 -16h2q24 0 40 16t16 42q0 24 -16 40t-42 16q-24 0 -40 -16 t-16 -40z" />
<glyph unicode="&#x202f;" horiz-adv-x="356" />
<glyph unicode="&#x2039;" horiz-adv-x="530" d="M112 490l264 -396v2l44 32l-242 364l242 366l-44 28z" />
<glyph unicode="&#x203a;" horiz-adv-x="530" d="M112 124l44 -28v2v-2l264 396l-264 396l-44 -32l240 -364z" />
<glyph unicode="&#x205f;" horiz-adv-x="446" />
<glyph unicode="&#x20ac;" horiz-adv-x="1156" d="M50 536h208q16 -110 48 -204q32 -92 78 -156q80 -104 180 -150q102 -46 222 -46v2l-2 -6q88 0 164 24t144 70l-14 56q-68 -50 -138 -74t-148 -24q-116 0 -212 52q-96 50 -164 164q-32 50 -56 126t-36 164h580v48h-584q-2 24 -2 48v48v56t2 56h584v48h-578q12 82 32 154 t48 124q56 104 148 164q92 62 208 62q88 0 156 -22t128 -66l12 60q-52 36 -124 60q-72 22 -170 22q-132 -2 -236 -70q-106 -68 -170 -178q-36 -60 -60 -140t-36 -172h-210v-48h204q-6 -52 -6 -104v-52q2 -24 2 -48h-202v-48z" />
<glyph unicode="&#x2122;" horiz-adv-x="1608" d="M52 1352h238v-704v2l-2 -2h56v704h240l4 52h-536v-52zM740 648h52v700h4l276 -700h44l276 700h2v-700h56v756h-86l-268 -676l-268 676h-88v-756z" />
<glyph unicode="&#xe000;" horiz-adv-x="1020" d="M0 0v1020h1020v-1020h-1020z" />
</font>
</defs>
</svg>
